<mxfile host="app.diagrams.net" modified="2024-06-14T00:31:47.171Z" agent="Mozilla/5.0 (Windows NT 10.0; Win64; x64) AppleWebKit/537.36 (KHTML, like Gecko) Chrome/126.0.0.0 Safari/537.36" etag="xv89CuIdbGsAy-Nzx6VL" version="24.5.4" type="device">
  <diagram name="PÃ¡gina-1" id="DuHOc-es81Kw9RTMgoo-">
    <mxGraphModel dx="3218" dy="2720" grid="1" gridSize="10" guides="1" tooltips="1" connect="1" arrows="1" fold="1" page="1" pageScale="1" pageWidth="1169" pageHeight="1654" math="0" shadow="0">
      <root>
        <mxCell id="0" />
        <mxCell id="1" parent="0" />
        <mxCell id="6_0tUARy9YuwA3Fw7Pum-6" value="" style="rounded=1;whiteSpace=wrap;html=1;dashed=1;dashPattern=8 8;fillColor=#ffe6cc;strokeColor=#d79b00;glass=0;shadow=0;" vertex="1" parent="1">
          <mxGeometry x="-60.82" y="-202.5" width="1008.37" height="885" as="geometry" />
        </mxCell>
        <mxCell id="zdHMWXkbkoVecwIOjnTi-111" value="" style="rounded=1;whiteSpace=wrap;html=1;dashed=1;dashPattern=8 8;fillColor=#fff2cc;strokeColor=#d6b656;glass=0;shadow=0;" parent="1" vertex="1">
          <mxGeometry x="-31.63" y="-145" width="950" height="790" as="geometry" />
        </mxCell>
        <mxCell id="zdHMWXkbkoVecwIOjnTi-103" value="" style="rounded=1;whiteSpace=wrap;html=1;dashed=1;dashPattern=8 8;fillColor=#f8cecc;strokeColor=#b85450;" parent="1" vertex="1">
          <mxGeometry x="-10" y="170" width="120" height="140" as="geometry" />
        </mxCell>
        <mxCell id="zdHMWXkbkoVecwIOjnTi-102" value="" style="rounded=1;whiteSpace=wrap;html=1;dashed=1;dashPattern=8 8;" parent="1" vertex="1">
          <mxGeometry x="-215" y="385" width="120" height="200" as="geometry" />
        </mxCell>
        <mxCell id="zdHMWXkbkoVecwIOjnTi-66" value="" style="rounded=1;whiteSpace=wrap;html=1;dashed=1;dashPattern=8 8;fillColor=#dae8fc;strokeColor=#6c8ebf;" parent="1" vertex="1">
          <mxGeometry x="155" y="-60" width="720" height="400" as="geometry" />
        </mxCell>
        <mxCell id="zdHMWXkbkoVecwIOjnTi-28" value="" style="rounded=1;whiteSpace=wrap;html=1;dashed=1;dashPattern=8 8;fillColor=#f5f5f5;strokeColor=#666666;fontColor=#333333;" parent="1" vertex="1">
          <mxGeometry x="200" y="385" width="180" height="200" as="geometry" />
        </mxCell>
        <mxCell id="zdHMWXkbkoVecwIOjnTi-18" value="" style="rounded=1;whiteSpace=wrap;html=1;dashed=1;dashPattern=8 8;fillColor=#f5f5f5;strokeColor=#666666;fontColor=#333333;" parent="1" vertex="1">
          <mxGeometry x="200" y="160" width="180" height="130" as="geometry" />
        </mxCell>
        <mxCell id="zdHMWXkbkoVecwIOjnTi-1" value="" style="rounded=1;whiteSpace=wrap;html=1;dashed=1;dashPattern=8 8;" parent="1" vertex="1">
          <mxGeometry x="-215" y="10" width="120" height="320" as="geometry" />
        </mxCell>
        <mxCell id="zdHMWXkbkoVecwIOjnTi-2" value="" style="image;html=1;image=img/lib/clip_art/computers/Database_128x128.png" parent="1" vertex="1">
          <mxGeometry x="-179.5" y="25" width="50" height="40" as="geometry" />
        </mxCell>
        <mxCell id="zdHMWXkbkoVecwIOjnTi-4" value="SAP" style="text;html=1;align=center;verticalAlign=middle;resizable=0;points=[];autosize=1;strokeColor=none;fillColor=none;" parent="1" vertex="1">
          <mxGeometry x="-179.5" y="140" width="50" height="30" as="geometry" />
        </mxCell>
        <mxCell id="zdHMWXkbkoVecwIOjnTi-5" value="Oracle" style="text;html=1;align=center;verticalAlign=middle;resizable=0;points=[];autosize=1;strokeColor=none;fillColor=none;" parent="1" vertex="1">
          <mxGeometry x="-184.5" y="70" width="60" height="30" as="geometry" />
        </mxCell>
        <mxCell id="zdHMWXkbkoVecwIOjnTi-6" value="SOURCES" style="text;align=center;verticalAlign=middle;resizable=0;points=[];autosize=1;strokeColor=none;fillColor=none;labelBorderColor=none;fontStyle=1;labelBackgroundColor=none;html=1;fontFamily=Verdana;" parent="1" vertex="1">
          <mxGeometry x="-194.5" y="-30" width="80" height="30" as="geometry" />
        </mxCell>
        <mxCell id="zdHMWXkbkoVecwIOjnTi-8" value="" style="outlineConnect=0;dashed=0;verticalLabelPosition=bottom;verticalAlign=top;align=center;html=1;shape=mxgraph.aws3.bucket_with_objects;fillColor=#E05243;gradientColor=none;" parent="1" vertex="1">
          <mxGeometry x="-172" y="205" width="35" height="40" as="geometry" />
        </mxCell>
        <mxCell id="zdHMWXkbkoVecwIOjnTi-9" value="Bucket S3" style="text;html=1;align=center;verticalAlign=middle;resizable=0;points=[];autosize=1;strokeColor=none;fillColor=none;" parent="1" vertex="1">
          <mxGeometry x="-193.5" y="250" width="80" height="30" as="geometry" />
        </mxCell>
        <mxCell id="zdHMWXkbkoVecwIOjnTi-10" value="" style="image;html=1;image=img/lib/clip_art/computers/Software_128x128.png" parent="1" vertex="1">
          <mxGeometry x="-180" y="410" width="45" height="30" as="geometry" />
        </mxCell>
        <mxCell id="zdHMWXkbkoVecwIOjnTi-12" value="Mediciones" style="text;html=1;align=center;verticalAlign=middle;resizable=0;points=[];autosize=1;strokeColor=none;fillColor=none;" parent="1" vertex="1">
          <mxGeometry x="-197.5" y="445" width="80" height="30" as="geometry" />
        </mxCell>
        <mxCell id="zdHMWXkbkoVecwIOjnTi-13" value="" style="image;html=1;image=img/lib/clip_art/telecommunication/iPhone_128x128.png" parent="1" vertex="1">
          <mxGeometry x="-191" y="485" width="67" height="50" as="geometry" />
        </mxCell>
        <mxCell id="zdHMWXkbkoVecwIOjnTi-14" value="Apps Mobile" style="text;html=1;align=center;verticalAlign=middle;resizable=0;points=[];autosize=1;strokeColor=none;fillColor=none;" parent="1" vertex="1">
          <mxGeometry x="-202.5" y="535" width="90" height="30" as="geometry" />
        </mxCell>
        <mxCell id="zdHMWXkbkoVecwIOjnTi-20" value="" style="editableCssRules=.*;html=1;shape=image;verticalLabelPosition=bottom;labelBackgroundColor=#ffffff;verticalAlign=top;aspect=fixed;imageAspect=0;image=data:image/svg+xml,PHN2ZyB4bWxucz0iaHR0cDovL3d3dy53My5vcmcvMjAwMC9zdmciIHhtbG5zOnY9Imh0dHBzOi8vdmVjdGEuaW8vbmFubyIgd2lkdGg9IjIwIiBoZWlnaHQ9IjE2IiB2aWV3Qm94PSIwIDAgMjAgMTYiPiYjeGE7CTxzdHlsZSB0eXBlPSJ0ZXh0L2NzcyI+JiN4YTsJLnN0MHtmaWxsOiM0Mjg1ZjQ7fSYjeGE7CS5zdDF7ZmlsbDojNjY5ZGY2O30mI3hhOwkuc3Qye2ZpbGw6I2FlY2JmYTt9JiN4YTsJLnN0M3tmaWxsOiNmZmY7fSYjeGE7CTwvc3R5bGU+JiN4YTsJPHBhdGggY2xhc3M9InN0MiIgZD0iTTAgMGgyMHY3SDB6Ii8+JiN4YTsJPHBhdGggY2xhc3M9InN0MSIgZD0iTTE4IDBoMnY3aC0yeiIvPiYjeGE7CTxwYXRoIGNsYXNzPSJzdDAiIGQ9Ik0xOCA3bDItN2gtMnoiLz4mI3hhOwk8cGF0aCBjbGFzcz0ic3QxIiBkPSJNMCAwaDJ2N0gweiIvPiYjeGE7CTxnIGNsYXNzPSJzdDMiPiYjeGE7CQk8cGF0aCBkPSJNNCAzaDZ2MUg0eiIvPiYjeGE7CQk8cmVjdCB4PSIxMyIgeT0iMiIgd2lkdGg9IjMiIGhlaWdodD0iMyIgcng9IjEuNSIvPiYjeGE7CTwvZz4mI3hhOwk8cGF0aCBjbGFzcz0ic3QyIiBkPSJNMCA5aDIwdjdIMHoiLz4mI3hhOwk8cGF0aCBjbGFzcz0ic3QxIiBkPSJNMTggOWgydjdoLTJ6Ii8+JiN4YTsJPHBhdGggY2xhc3M9InN0MCIgZD0iTTE4IDE2bDItN2gtMnoiLz4mI3hhOwk8cGF0aCBjbGFzcz0ic3QxIiBkPSJNMCA5aDJ2N0gweiIvPiYjeGE7CTxnIGNsYXNzPSJzdDMiPiYjeGE7CQk8cGF0aCBkPSJNNCAxMmg2djFINHoiLz4mI3hhOwkJPHJlY3QgeD0iMTMiIHk9IjExIiB3aWR0aD0iMyIgaGVpZ2h0PSIzIiByeD0iMS41Ii8+JiN4YTsJPC9nPiYjeGE7PC9zdmc+;" parent="1" vertex="1">
          <mxGeometry x="250" y="180" width="75" height="60" as="geometry" />
        </mxCell>
        <mxCell id="zdHMWXkbkoVecwIOjnTi-23" value="" style="editableCssRules=.*;html=1;shape=image;verticalLabelPosition=bottom;labelBackgroundColor=#ffffff;verticalAlign=top;aspect=fixed;imageAspect=0;image=data:image/svg+xml,PHN2ZyB4bWxucz0iaHR0cDovL3d3dy53My5vcmcvMjAwMC9zdmciIHhtbG5zOnY9Imh0dHBzOi8vdmVjdGEuaW8vbmFubyIgd2lkdGg9IjE4LjMxOTk5OTY5NDgyNDIyIiBoZWlnaHQ9IjIwLjAwMDAwMTkwNzM0ODYzMyIgdmlld0JveD0iMCAwIDE4LjMxOTk5OTY5NDgyNDIyIDIwLjAwMDAwMTkwNzM0ODYzMyI+JiN4YTsJPHN0eWxlIHR5cGU9InRleHQvY3NzIj4mI3hhOwkuc3Qwe2ZpbGw6IzY2OWRmNjt9JiN4YTsJLnN0MXtmaWxsOiM0Mjg1ZjQ7fSYjeGE7CS5zdDJ7ZmlsbDojYWVjYmZhO30mI3hhOwk8L3N0eWxlPiYjeGE7CTxkZWZzPiYjeGE7CQk8ZmlsdGVyIGlkPSJBIiB4PSI0LjY0IiB5PSI0LjE5IiB3aWR0aD0iMTQuNzMiIGhlaWdodD0iMTIuNzYiIGZpbHRlclVuaXRzPSJ1c2VyU3BhY2VPblVzZSIgY29sb3ItaW50ZXJwb2xhdGlvbi1maWx0ZXJzPSJzUkdCIj4mI3hhOwkJCTxmZUZsb29kIGZsb29kLWNvbG9yPSIjZmZmIi8+JiN4YTsJCQk8ZmVCbGVuZCBpbj0iU291cmNlR3JhcGhpYyIvPiYjeGE7CQk8L2ZpbHRlcj4mI3hhOwkJPG1hc2sgaWQ9IkIiIHg9IjQuNjQiIHk9IjQuMTkiIHdpZHRoPSIxNC43MyIgaGVpZ2h0PSIxMi43NiIgbWFza1VuaXRzPSJ1c2VyU3BhY2VPblVzZSI+JiN4YTsJCQk8Y2lyY2xlIGN4PSIxMiIgY3k9IjEyLjIzIiByPSIzLjU4IiBmaWx0ZXI9InVybCgjQSkiLz4mI3hhOwkJPC9tYXNrPiYjeGE7CTwvZGVmcz4mI3hhOwk8ZyBjbGFzcz0ic3QwIj4mI3hhOwkJPGNpcmNsZSBjeD0iMTYuMTMiIGN5PSI2LjIxIiByPSIxLjcyIi8+JiN4YTsJCTxjaXJjbGUgY3g9IjIuMTkiIGN5PSI2LjIxIiByPSIxLjcyIi8+JiN4YTsJCTxjaXJjbGUgY3g9IjkuMTYiIGN5PSIxOC4yOCIgcj0iMS43MiIvPiYjeGE7CTwvZz4mI3hhOwk8ZyBtYXNrPSJ1cmwoI0IpIiB0cmFuc2Zvcm09InRyYW5zbGF0ZSgtMi44NCAtMikiPiYjeGE7CQk8cGF0aCB0cmFuc2Zvcm09Im1hdHJpeCguNSAtLjg3IC44NyAuNSAtNC41OSAyMC41MykiIGQ9Ik0xNC42OSAxMC4yMmgxLjU5djguMDRoLTEuNTl6IiBjbGFzcz0ic3QxIi8+JiN4YTsJCTxwYXRoIHRyYW5zZm9ybT0icm90YXRlKDMzMCA4LjUyMyAxNC4yNDQpIiBkPSJNNC40OSAxMy40NWg4LjA0djEuNTlINC40OXoiIGNsYXNzPSJzdDEiLz4mI3hhOwkJPHBhdGggZD0iTTExLjIgNC4xOWgxLjU5djguMDRIMTEuMnoiIGNsYXNzPSJzdDEiLz4mI3hhOwk8L2c+JiN4YTsJPGcgY2xhc3M9InN0MiI+JiN4YTsJCTxjaXJjbGUgY3g9IjkuMTYiIGN5PSIxMC4yMyIgcj0iMi43OCIvPiYjeGE7CQk8Y2lyY2xlIGN4PSIyLjE5IiBjeT0iMTQuMjUiIHI9IjIuMTkiLz4mI3hhOwkJPGNpcmNsZSBjeD0iMTYuMTMiIGN5PSIxNC4yNSIgcj0iMi4xOSIvPiYjeGE7CQk8Y2lyY2xlIGN4PSI5LjE2IiBjeT0iMi4xOSIgcj0iMi4xOSIvPiYjeGE7CTwvZz4mI3hhOzwvc3ZnPg==;" parent="1" vertex="1">
          <mxGeometry x="258.5" y="445" width="63" height="70" as="geometry" />
        </mxCell>
        <mxCell id="zdHMWXkbkoVecwIOjnTi-24" value="Cloud Storage" style="text;html=1;align=center;verticalAlign=middle;resizable=0;points=[];autosize=1;strokeColor=none;fillColor=none;" parent="1" vertex="1">
          <mxGeometry x="240" y="250" width="100" height="30" as="geometry" />
        </mxCell>
        <mxCell id="zdHMWXkbkoVecwIOjnTi-27" value="PUB/SUB" style="text;html=1;align=center;verticalAlign=middle;resizable=0;points=[];autosize=1;strokeColor=none;fillColor=none;" parent="1" vertex="1">
          <mxGeometry x="250" y="520" width="80" height="30" as="geometry" />
        </mxCell>
        <mxCell id="zdHMWXkbkoVecwIOjnTi-29" value="" style="rounded=1;whiteSpace=wrap;html=1;dashed=1;dashPattern=8 8;fillColor=#f5f5f5;strokeColor=#666666;fontColor=#333333;" parent="1" vertex="1">
          <mxGeometry x="430" y="160" width="170" height="130" as="geometry" />
        </mxCell>
        <mxCell id="zdHMWXkbkoVecwIOjnTi-30" value="TRANSFORM" style="text;align=center;verticalAlign=middle;resizable=0;points=[];autosize=1;strokeColor=none;fillColor=none;labelBorderColor=none;fontStyle=1;labelBackgroundColor=none;html=1;fontFamily=Verdana;" parent="1" vertex="1">
          <mxGeometry x="465" y="290" width="100" height="30" as="geometry" />
        </mxCell>
        <mxCell id="zdHMWXkbkoVecwIOjnTi-31" value="" style="editableCssRules=.*;html=1;shape=image;verticalLabelPosition=bottom;labelBackgroundColor=#ffffff;verticalAlign=top;aspect=fixed;imageAspect=0;image=data:image/svg+xml,PHN2ZyB4bWxucz0iaHR0cDovL3d3dy53My5vcmcvMjAwMC9zdmciIHhtbG5zOnY9Imh0dHBzOi8vdmVjdGEuaW8vbmFubyIgd2lkdGg9IjE5LjM2MzAxMjMxMzg0Mjc3MyIgaGVpZ2h0PSIxNy45NzU1MjY4MDk2OTIzODMiIHZpZXdCb3g9IjAuMDAwNTYwMDI1NjI2MzI3ODQyNSAwLjYxOTYyOTc0MDcxNTAyNjkgMTkuMzYzMDEyMzEzODQyNzczIDE3Ljk3NTUyNjgwOTY5MjM4MyI+JiN4YTsJPHN0eWxlIHR5cGU9InRleHQvY3NzIj4mI3hhOwkuc3Qwe2ZpbGwtcnVsZTpldmVub2RkO30mI3hhOwkuc3Qxe2ZpbGw6I2FlY2JmYTt9JiN4YTsJLnN0MntmaWxsOiM0Mjg1ZjQ7fSYjeGE7CS5zdDN7ZmlsbDojNjY5ZGY2O30mI3hhOwk8L3N0eWxlPiYjeGE7CTxnIGNsYXNzPSJzdDAgc3QxIj4mI3hhOwkJPHBhdGggZD0iTTQuNjkgMTYuNGwxMC4xOS01Ljg5Ljk3IDEuNjktMTAuMTggNS44OHoiLz4mI3hhOwkJPHBhdGggZD0iTTcuNSA0LjR2MTAuMzVsLTEuODcgMS40MVY0LjR6Ii8+JiN4YTsJCTxwYXRoIGQ9Ik0xNy40OSAxMS4ybC0uOTcgMS42OC04Ljk2LTUuMTktLjI2LTIuMzZ6Ii8+JiN4YTsJPC9nPiYjeGE7CTxwYXRoIGNsYXNzPSJzdDAgc3QyIiBkPSJNMTIuMzkgOC4yNkw3LjMgNS4zM2wuMjYgMi4zNiAxLjUxLjg2YTQgNCAwIDAgMCAzLjMyLS4yOXoiLz4mI3hhOwk8cGF0aCBjbGFzcz0ic3QwIHN0MSIgZD0iTTYuMTMgNi4yOWgwYTMuNzggMy43OCAwIDAgMSA1LjE2NS01LjE2M0EzLjc4IDMuNzggMCAwIDEgOS40IDguMThhMy44IDMuOCAwIDAgMS0zLjI3LTEuODl6TTExIDMuNDlhMS44NCAxLjg0IDAgMCAwLTEuNTktLjkyQTEuODMgMS44MyAwIDAgMCA3LjU3IDQuNGExLjg0IDEuODQgMCAwIDAgMi43OTQgMS43MDZBMS44NCAxLjg0IDAgMCAwIDExLjI0IDQuNGExLjggMS44IDAgMCAwLS4yNC0uOTF6Ii8+JiN4YTsJPHBhdGggY2xhc3M9InN0MCBzdDIiIGQ9Ik01LjYzIDEwLjk0djUuMjJsMS44Ny0xLjQxdi0xLjYzYTMuMjkgMy4yOSAwIDAgMC0xLjg3LTIuMTh6bTUuNyAzLjg3bDQuNTItMi42MS0yLjIxLTEtMS4yNS44YTQuMjMgNC4yMyAwIDAgMC0xLjA2IDIuODZ6Ii8+JiN4YTsJPHBhdGggY2xhc3M9InN0MCBzdDEiIGQ9Ik0uNTEgMTYuN2gwYTMuNzcgMy43NyAwIDAgMSAxLjM4LTUuMTYgMy43MiAzLjcyIDAgMCAxIDIuODYtLjM4QTMuNzggMy43OCAwIDEgMSAuNTEgMTYuN3ptNC44NS0yLjgxQTEuNzkgMS43OSAwIDAgMCA0LjI1IDEzYTEuODMgMS44MyAwIDAgMC0yLjA2IDIuNjloMGMuMzI5LjU2Ni45MzQuOTE0IDEuNTg5LjkxM2ExLjgzIDEuODMgMCAwIDAgMS41ODUtLjkyYy4zMjYtLjU2OC4zMjQtMS4yNjctLjAwNC0xLjgzM3ptNi45NyAyLjQ3aDBhMy43OSAzLjc5IDAgMCAxIDAtMy43NyAzLjc5IDMuNzkgMCAwIDEgNS4xNi0xLjM5IDMuNzggMy43OCAwIDAgMS0xLjg5IDcuMDQ0IDMuNzggMy43OCAwIDAgMS0zLjI3LTEuODg0em00Ljg2LTIuODFhMiAyIDAgMCAwLS42Ny0uNjcgMS44NSAxLjg1IDAgMCAwLTIuNTEuNjggMS44NiAxLjg2IDAgMCAwIDAgMS44MyAxLjgzIDEuODMgMCAwIDAgMi4wNy44NSAxLjgyIDEuODIgMCAwIDAgMS4xMS0uODUgMS44OCAxLjg4IDAgMCAwIDAtMS44NHoiLz4mI3hhOwk8cGF0aCBjbGFzcz0ic3QwIHN0MyIgZD0iTTcuNDkgMTQuMTVsLTIuOCAyLjI1IDIuODYtMS42NWE0LjA3IDQuMDcgMCAwIDAtLjA2LS42ek04LjE1IDhsLS41OS0zLjZ2My4yOWEzLjQ3IDMuNDcgMCAwIDAgLjU5LjI3em01LjE1IDMuNDdsMy4yMiAxLjQxLTIuODYtMS42NGExLjY5IDEuNjkgMCAwIDAtLjM2LjIzeiIvPiYjeGE7PC9zdmc+;" parent="1" vertex="1">
          <mxGeometry x="483.16" y="180" width="73.68" height="70" as="geometry" />
        </mxCell>
        <mxCell id="zdHMWXkbkoVecwIOjnTi-32" value="Dataproc&lt;div&gt;&lt;br&gt;&lt;/div&gt;" style="text;html=1;align=center;verticalAlign=middle;resizable=0;points=[];autosize=1;strokeColor=none;fillColor=none;" parent="1" vertex="1">
          <mxGeometry x="485" y="255" width="70" height="40" as="geometry" />
        </mxCell>
        <mxCell id="zdHMWXkbkoVecwIOjnTi-33" value="" style="endArrow=oval;html=1;rounded=0;startArrow=oval;startFill=1;endFill=1;exitX=1;exitY=0.5;exitDx=0;exitDy=0;entryX=0;entryY=0.5;entryDx=0;entryDy=0;" parent="1" source="zdHMWXkbkoVecwIOjnTi-18" target="zdHMWXkbkoVecwIOjnTi-29" edge="1">
          <mxGeometry width="50" height="50" relative="1" as="geometry">
            <mxPoint x="370" y="190" as="sourcePoint" />
            <mxPoint x="410" y="200" as="targetPoint" />
          </mxGeometry>
        </mxCell>
        <mxCell id="zdHMWXkbkoVecwIOjnTi-37" value="INGEST" style="text;align=center;verticalAlign=middle;resizable=0;points=[];autosize=1;strokeColor=none;fillColor=none;labelBorderColor=none;fontStyle=1;labelBackgroundColor=none;html=1;fontFamily=Verdana;" parent="1" vertex="1">
          <mxGeometry x="222" y="590" width="70" height="30" as="geometry" />
        </mxCell>
        <mxCell id="zdHMWXkbkoVecwIOjnTi-41" value="" style="endArrow=oval;html=1;rounded=0;startArrow=oval;startFill=1;endFill=1;exitX=1;exitY=0.5;exitDx=0;exitDy=0;entryX=0;entryY=0.542;entryDx=0;entryDy=0;entryPerimeter=0;" parent="1" edge="1">
          <mxGeometry width="50" height="50" relative="1" as="geometry">
            <mxPoint x="600" y="230" as="sourcePoint" />
            <mxPoint x="670" y="230.46000000000004" as="targetPoint" />
          </mxGeometry>
        </mxCell>
        <mxCell id="zdHMWXkbkoVecwIOjnTi-42" value="LOAD" style="text;align=center;verticalAlign=middle;resizable=0;points=[];autosize=1;strokeColor=none;fillColor=none;labelBorderColor=none;fontStyle=1;labelBackgroundColor=none;html=1;fontFamily=Verdana;" parent="1" vertex="1">
          <mxGeometry x="725" y="290" width="60" height="30" as="geometry" />
        </mxCell>
        <mxCell id="zdHMWXkbkoVecwIOjnTi-44" value="" style="rounded=1;whiteSpace=wrap;html=1;dashed=1;dashPattern=8 8;fillColor=#f5f5f5;strokeColor=#666666;fontColor=#333333;" parent="1" vertex="1">
          <mxGeometry x="670" y="385" width="180" height="200" as="geometry" />
        </mxCell>
        <mxCell id="zdHMWXkbkoVecwIOjnTi-45" value="" style="editableCssRules=.*;html=1;shape=image;verticalLabelPosition=bottom;labelBackgroundColor=#ffffff;verticalAlign=top;aspect=fixed;imageAspect=0;image=data:image/svg+xml,PHN2ZyB4bWxucz0iaHR0cDovL3d3dy53My5vcmcvMjAwMC9zdmciIHhtbG5zOnY9Imh0dHBzOi8vdmVjdGEuaW8vbmFubyIgd2lkdGg9IjIwLjAwMTA0NTIyNzA1MDc4IiBoZWlnaHQ9IjIwLjAwMTA0NTIyNzA1MDc4IiBmaWxsLXJ1bGU9ImV2ZW5vZGQiIHZpZXdCb3g9IjAgMCAyMC4wMDEwNDUyMjcwNTA3OCAyMC4wMDEwNDUyMjcwNTA3OCI+JiN4YTsJPHN0eWxlIHR5cGU9InRleHQvY3NzIj4mI3hhOwkuc3Qwe2ZpbGw6I2FlY2JmYTt9JiN4YTsJLnN0MXtmaWxsOiM2NjlkZjY7fSYjeGE7CS5zdDJ7ZmlsbDojNDI4NWY0O30mI3hhOwk8L3N0eWxlPiYjeGE7CTxwYXRoIGNsYXNzPSJzdDAiIGQ9Ik00LjczIDguODN2Mi42M2E0LjkxIDQuOTEgMCAwIDAgMS43MSAxLjc0VjguODN6Ii8+JiN4YTsJPHBhdGggY2xhc3M9InN0MSIgZD0iTTcuODkgNi40MXY3LjUzQTcuNjIgNy42MiAwIDAgMCA5IDE0YTggOCAwIDAgMCAxIDBWNi40MXoiLz4mI3hhOwk8cGF0aCBjbGFzcz0ic3QwIiBkPSJNMTEuNjQgOS44NnYzLjI5YTUgNSAwIDAgMCAxLjctMS44MlY5Ljg2eiIvPiYjeGE7CTxwYXRoIGNsYXNzPSJzdDIiIGQ9Ik0xNS43NCAxNC4zMmwtMS40MiAxLjQyYS40Mi40MiAwIDAgMCAwIC42bDMuNTQgMy41NGEuNDIuNDIgMCAwIDAgLjU5IDBsMS40My0xLjQzYS40Mi40MiAwIDAgMCAwLS41OWwtMy41NC0zLjU0YS40Mi40MiAwIDAgMC0uNiAwIi8+JiN4YTsJPHBhdGggY2xhc3M9InN0MSIgZD0iTTkgMGE5IDkgMCAxIDAgMCAxOEE5IDkgMCAxIDAgOSAwbTAgMTUuNjlhNi42OCA2LjY4IDAgMCAxIC4wMDctMTMuMzYgNi42OCA2LjY4IDAgMCAxIDQuNzI3IDExLjQwM0E2LjY4IDYuNjggMCAwIDEgOSAxNS42OSIvPiYjeGE7PC9zdmc+;" parent="1" vertex="1">
          <mxGeometry x="730" y="450" width="60" height="60" as="geometry" />
        </mxCell>
        <mxCell id="zdHMWXkbkoVecwIOjnTi-46" value="&lt;div&gt;Big Query&lt;/div&gt;" style="text;html=1;align=center;verticalAlign=middle;resizable=0;points=[];autosize=1;strokeColor=none;fillColor=none;" parent="1" vertex="1">
          <mxGeometry x="720" y="520" width="80" height="30" as="geometry" />
        </mxCell>
        <mxCell id="zdHMWXkbkoVecwIOjnTi-47" value="LOAD" style="text;align=center;verticalAlign=middle;resizable=0;points=[];autosize=1;strokeColor=none;fillColor=none;labelBorderColor=none;fontStyle=1;labelBackgroundColor=none;html=1;fontFamily=Verdana;" parent="1" vertex="1">
          <mxGeometry x="705" y="590" width="60" height="30" as="geometry" />
        </mxCell>
        <mxCell id="zdHMWXkbkoVecwIOjnTi-48" value="" style="endArrow=oval;html=1;rounded=0;startArrow=oval;startFill=1;endFill=1;exitX=1;exitY=0.5;exitDx=0;exitDy=0;entryX=0;entryY=0.5;entryDx=0;entryDy=0;" parent="1" source="zdHMWXkbkoVecwIOjnTi-28" target="zdHMWXkbkoVecwIOjnTi-81" edge="1">
          <mxGeometry width="50" height="50" relative="1" as="geometry">
            <mxPoint x="480" y="470" as="sourcePoint" />
            <mxPoint x="430" y="480" as="targetPoint" />
          </mxGeometry>
        </mxCell>
        <mxCell id="zdHMWXkbkoVecwIOjnTi-50" value="" style="image;html=1;image=img/lib/clip_art/computers/Monitor_128x128.png" parent="1" vertex="1">
          <mxGeometry x="995" y="455" width="65" height="60" as="geometry" />
        </mxCell>
        <mxCell id="zdHMWXkbkoVecwIOjnTi-52" value="" style="endArrow=oval;html=1;rounded=0;startArrow=oval;startFill=1;endFill=1;entryX=0;entryY=0.5;entryDx=0;entryDy=0;" parent="1" target="zdHMWXkbkoVecwIOjnTi-50" edge="1">
          <mxGeometry width="50" height="50" relative="1" as="geometry">
            <mxPoint x="851" y="485" as="sourcePoint" />
            <mxPoint x="940" y="487" as="targetPoint" />
          </mxGeometry>
        </mxCell>
        <mxCell id="zdHMWXkbkoVecwIOjnTi-53" value="Real time monitoring" style="text;html=1;align=center;verticalAlign=middle;resizable=0;points=[];autosize=1;strokeColor=none;fillColor=none;" parent="1" vertex="1">
          <mxGeometry x="962.5" y="520" width="130" height="30" as="geometry" />
        </mxCell>
        <mxCell id="zdHMWXkbkoVecwIOjnTi-54" value="" style="image;html=1;image=img/lib/clip_art/computers/Monitor_128x128.png" parent="1" vertex="1">
          <mxGeometry x="980" y="45" width="50" height="60" as="geometry" />
        </mxCell>
        <mxCell id="zdHMWXkbkoVecwIOjnTi-56" value="" style="endArrow=oval;html=1;rounded=0;startArrow=oval;startFill=1;endFill=1;entryX=-0.062;entryY=0.6;entryDx=0;entryDy=0;entryPerimeter=0;exitX=1;exitY=0.5;exitDx=0;exitDy=0;" parent="1" source="Lg3gl4oM5DAoJkV3vUxF-5" target="zdHMWXkbkoVecwIOjnTi-54" edge="1">
          <mxGeometry width="50" height="50" relative="1" as="geometry">
            <mxPoint x="960" as="sourcePoint" />
            <mxPoint x="910" y="179.5" as="targetPoint" />
          </mxGeometry>
        </mxCell>
        <mxCell id="zdHMWXkbkoVecwIOjnTi-57" value="" style="image;html=1;image=img/lib/clip_art/computers/Laptop_128x128.png" parent="1" vertex="1">
          <mxGeometry x="980" y="170" width="70" height="60" as="geometry" />
        </mxCell>
        <mxCell id="zdHMWXkbkoVecwIOjnTi-58" value="" style="endArrow=oval;html=1;rounded=0;startArrow=oval;startFill=1;endFill=1;entryX=0;entryY=0.5;entryDx=0;entryDy=0;exitX=1;exitY=0.646;exitDx=0;exitDy=0;exitPerimeter=0;" parent="1" source="Lg3gl4oM5DAoJkV3vUxF-5" target="zdHMWXkbkoVecwIOjnTi-57" edge="1">
          <mxGeometry width="50" height="50" relative="1" as="geometry">
            <mxPoint x="950" y="390" as="sourcePoint" />
            <mxPoint x="935" y="158" as="targetPoint" />
          </mxGeometry>
        </mxCell>
        <mxCell id="zdHMWXkbkoVecwIOjnTi-59" value="Dashboards" style="text;html=1;align=center;verticalAlign=middle;resizable=0;points=[];autosize=1;strokeColor=none;fillColor=none;" parent="1" vertex="1">
          <mxGeometry x="960" y="105" width="90" height="30" as="geometry" />
        </mxCell>
        <mxCell id="zdHMWXkbkoVecwIOjnTi-60" value="Analitycs" style="text;html=1;align=center;verticalAlign=middle;resizable=0;points=[];autosize=1;strokeColor=none;fillColor=none;" parent="1" vertex="1">
          <mxGeometry x="980" y="230" width="70" height="30" as="geometry" />
        </mxCell>
        <mxCell id="zdHMWXkbkoVecwIOjnTi-67" value="" style="editableCssRules=.*;html=1;shape=image;verticalLabelPosition=bottom;labelBackgroundColor=#ffffff;verticalAlign=top;aspect=fixed;imageAspect=0;image=data:image/svg+xml,PHN2ZyB4bWxucz0iaHR0cDovL3d3dy53My5vcmcvMjAwMC9zdmciIHhtbG5zOnY9Imh0dHBzOi8vdmVjdGEuaW8vbmFubyIgd2lkdGg9IjE0LjY0MDAwMDM0MzMyMjc1NCIgaGVpZ2h0PSIyMCIgdmlld0JveD0iMCAwIDE0LjY0MDAwMDM0MzMyMjc1NCAyMCI+JiN4YTsJPHN0eWxlIHR5cGU9InRleHQvY3NzIj4mI3hhOwkuc3Qwe2ZpbGw6I2FlY2JmYTt9JiN4YTsJLnN0MXtmaWxsOiM0Mjg1ZjQ7fSYjeGE7CTwvc3R5bGU+JiN4YTsJPHBhdGggY2xhc3M9InN0MCIgZD0iTTAgMGgxNC42M3YzLjk0aC01LjN2NS4zM0g1LjM1VjMuOTZIMHoiLz4mI3hhOwk8cGF0aCBjbGFzcz0ic3QxIiBkPSJNMy45NSAxMC42N2g1LjM0VjIwSDUuMzV2LTUuMzVIMFY1LjM3aDMuOTV6TTE0LjY0IDIwSDEwLjdWNS4zNmgzLjk0eiIvPiYjeGE7CTxwYXRoIGNsYXNzPSJzdDAiIGQ9Ik0wIDE2LjA2aDMuOTJWMjBIMHoiLz4mI3hhOzwvc3ZnPg==;" parent="1" vertex="1">
          <mxGeometry x="210" y="-50" width="30" height="40" as="geometry" />
        </mxCell>
        <mxCell id="zdHMWXkbkoVecwIOjnTi-69" value="&lt;span style=&quot;font-weight: normal;&quot;&gt;Cloud Composer&lt;/span&gt;" style="text;align=center;verticalAlign=middle;resizable=0;points=[];autosize=1;strokeColor=none;fillColor=none;labelBorderColor=none;fontStyle=1;labelBackgroundColor=none;html=1;fontFamily=Verdana;" parent="1" vertex="1">
          <mxGeometry x="240" y="-50" width="120" height="30" as="geometry" />
        </mxCell>
        <mxCell id="zdHMWXkbkoVecwIOjnTi-81" value="" style="rounded=1;whiteSpace=wrap;html=1;dashed=1;dashPattern=8 8;fillColor=#f5f5f5;strokeColor=#666666;fontColor=#333333;" parent="1" vertex="1">
          <mxGeometry x="430" y="385" width="180" height="200" as="geometry" />
        </mxCell>
        <mxCell id="zdHMWXkbkoVecwIOjnTi-84" value="Dataflow" style="text;html=1;align=center;verticalAlign=middle;resizable=0;points=[];autosize=1;strokeColor=none;fillColor=none;" parent="1" vertex="1">
          <mxGeometry x="486.84" y="520" width="70" height="30" as="geometry" />
        </mxCell>
        <mxCell id="zdHMWXkbkoVecwIOjnTi-86" value="" style="endArrow=oval;html=1;rounded=0;startArrow=oval;startFill=1;endFill=1;exitX=1;exitY=0.5;exitDx=0;exitDy=0;" parent="1" edge="1">
          <mxGeometry width="50" height="50" relative="1" as="geometry">
            <mxPoint x="610" y="484.5" as="sourcePoint" />
            <mxPoint x="670" y="485" as="targetPoint" />
          </mxGeometry>
        </mxCell>
        <mxCell id="zdHMWXkbkoVecwIOjnTi-87" value="" style="editableCssRules=.*;html=1;shape=image;verticalLabelPosition=bottom;labelBackgroundColor=#ffffff;verticalAlign=top;aspect=fixed;imageAspect=0;image=data:image/svg+xml,PHN2ZyB4bWxucz0iaHR0cDovL3d3dy53My5vcmcvMjAwMC9zdmciIHhtbG5zOnY9Imh0dHBzOi8vdmVjdGEuaW8vbmFubyIgd2lkdGg9IjE0LjUxOTk5OTUwNDA4OTM1NSIgaGVpZ2h0PSIyMCIgdmlld0JveD0iMCAwIDE0LjUxOTk5OTUwNDA4OTM1NSAyMCI+JiN4YTsJPHN0eWxlIHR5cGU9InRleHQvY3NzIj4mI3hhOwkuc3Qwe2ZpbGwtcnVsZTpldmVub2RkfSYjeGE7CS5zdDF7ZmlsbDojNjY5ZGY2O30mI3hhOwkuc3Qye2ZpbGw6I2FlY2JmYTt9JiN4YTsJLnN0M3tmaWxsOiM0Mjg1ZjQ7fSYjeGE7CTwvc3R5bGU+JiN4YTsJPGcgY2xhc3M9InN0MCI+JiN4YTsJCTxwYXRoIGNsYXNzPSJzdDEiIGQ9Ik03LjM3IDIuMDNsLTEuNzIuOTYgMS41MiAxLjUtLjAyIDEuNzMgMS4wMi4wMS4wMi0xLjczIDQuMjQgMi41Ni0uMDEgMS4wNyAxLjc3LjAzVjYuMTFMOS4wNSAzLjA0bC0uMjctLjk0eiIvPiYjeGE7CQk8cGF0aCBjbGFzcz0ic3QyIiBkPSJNNy4zNiAyLjAzbC0xLjQyLjM1LS4yOS42MUwuMzkgNS45Mi4zNiA3Ljk3IDIuMTQgOGwuMDItMS4wNyA0LjMxLTIuNDUtLjAyIDEuNzMuODYuMDEuMDYtNC4xOXoiLz4mI3hhOwkJPGcgY2xhc3M9InN0MSI+JiN4YTsJCQk8cGF0aCBkPSJNNy4zNiAyLjAzTDMuOTUgMCAyLjIxLjk1bDMuNDQgMi4wNCAxLjcyLS45NnptLjcxIDExLjc2bC0xLjcyLS4wMi0uMDIgMS43Mi44MiAyLjQ4IDEuNDItLjEyLjI5LS44NSA1LjI3LTIuOTMuMDMtMi4wOS0xLjc5LS4wMi0uMDIgMS4xLTQuMyAyLjQ1eiIvPiYjeGE7CQkJPHBhdGggZD0iTTcuMTUgMTcuOTdsLTMuNDYgMS45NGgtLjA1bC0xLjY2LS45OSAzLjQ5LTEuOTYgMS42OCAxLjAxeiIvPiYjeGE7CQk8L2c+JiN4YTsJCTxwYXRoIGNsYXNzPSJzdDMiIGQ9Ik0xMC44OC4wOWgtLjA1TDcuMzcgMi4wM2wxLjY4IDEuMDEgMy40OS0xLjk2ek0xMC42MiAyMGgtLjA1bC0zLjQyLTIuMDNoMCAwIDBsMS43Mi0uOTYgMy40NCAyLjA0eiIvPiYjeGE7CQk8cGF0aCBjbGFzcz0ic3QyIiBkPSJNLjMzIDEzLjg5di0yaDEuNzZsLS4wMSAxLjA0IDQuMjUgMi41Ni4wMi0xLjcyLjg2LjAxLS4wNiA0LjE4LTEuNjgtMXoiLz4mI3hhOwk8L2c+JiN4YTsJPGNpcmNsZSBjbGFzcz0ic3QyIiBjeD0iMTMuMzgiIGN5PSIxMC4wNCIgcj0iMS4xNCIvPiYjeGE7CTxjaXJjbGUgY2xhc3M9InN0MiIgY3g9IjEuMTQiIGN5PSI5Ljg4IiByPSIxLjE0Ii8+JiN4YTsJPGNpcmNsZSBjbGFzcz0ic3QyIiBjeD0iNy4zMiIgY3k9IjcuOTkiIHI9IjEuMTQiLz4mI3hhOwk8Y2lyY2xlIGNsYXNzPSJzdDIiIGN4PSI3LjIzIiBjeT0iMTIiIHI9IjEuMTQiLz4mI3hhOzwvc3ZnPg==;" parent="1" vertex="1">
          <mxGeometry x="495.59" y="445" width="52.5" height="70" as="geometry" />
        </mxCell>
        <mxCell id="zdHMWXkbkoVecwIOjnTi-90" value="" style="editableCssRules=.*;html=1;shape=image;verticalLabelPosition=bottom;labelBackgroundColor=#ffffff;verticalAlign=top;aspect=fixed;imageAspect=0;image=data:image/svg+xml,PHN2ZyB4bWxucz0iaHR0cDovL3d3dy53My5vcmcvMjAwMC9zdmciIHhtbG5zOnY9Imh0dHBzOi8vdmVjdGEuaW8vbmFubyIgd2lkdGg9IjE2LjQyMDAwMDA3NjI5Mzk0NSIgaGVpZ2h0PSIyMC4wNDk5OTkyMzcwNjA1NDciIGZpbGwtcnVsZT0iZXZlbm9kZCIgdmlld0JveD0iMCAwIDE2LjQyMDAwMDA3NjI5Mzk0NSAyMC4wNDk5OTkyMzcwNjA1NDciPiYjeGE7CTxzdHlsZSB0eXBlPSJ0ZXh0L2NzcyI+JiN4YTsJLnN0MHtmaWxsOiM0Mjg1ZjQ7fSYjeGE7CS5zdDF7ZmlsbDojNjY5ZGY2O30mI3hhOwk8L3N0eWxlPiYjeGE7CTxwYXRoIGNsYXNzPSJzdDEiIGQ9Ik04LjIxIDBMMCAzLjQydjUuNjNjMCA1LjA2IDMuNSA5LjggOC4yMSAxMSA0LjcxLTEuMTUgOC4yMS01Ljg5IDguMjEtMTAuOTVWMy40MnptMCAzLjc5YTIuNjMgMi42MyAwIDAgMSAxLjAwNSA1LjA2QTIuNjMgMi42MyAwIDAgMSA2LjM1IDQuNTZhMi42MyAyLjYzIDAgMCAxIDEuODYtLjc3em00LjExIDExLjE1YTguNjQgOC42NCAwIDAgMS00LjExIDIuOTMgOC42NCA4LjY0IDAgMCAxLTQuMTEtMi45M3YtMi4yNWMwLTEuNjcgMi43NC0yLjUyIDQuMTEtMi41MnM0LjExLjg1IDQuMTEgMi41MnoiLz4mI3hhOwk8cGF0aCBjbGFzcz0ic3QwIiBkPSJNOC4yMSAwdjMuNzlhMi42MyAyLjYzIDAgMSAxIDAgNS4yNnYxLjEyYzEuMzcgMCA0LjExLjg1IDQuMTEgMi41MnYyLjI1YTguNjQgOC42NCAwIDAgMS00LjExIDIuOTNWMjBjNC43MS0xLjE1IDguMjEtNS44OSA4LjIxLTEwLjk1VjMuNDJ6Ii8+JiN4YTs8L3N2Zz4=;" parent="1" vertex="1">
          <mxGeometry x="260" y="-140" width="32" height="40" as="geometry" />
        </mxCell>
        <mxCell id="zdHMWXkbkoVecwIOjnTi-92" value="" style="shape=image;verticalLabelPosition=bottom;labelBackgroundColor=default;verticalAlign=top;aspect=fixed;imageAspect=0;image=data:image/png,iVBORw0KGgoAAAANSUhEUgAAAgAAAAIACAMAAADDpiTIAAAAw1BMVEUAAABAgP9AgP9AgOpAgO9AgPJAivRAifZAh/dAh/FAhvJAhfNAhfRAhPVAhPZEhPJEg/NBhfRBhfRBhfVBhPVBhPNDhPNDhPRDhvRDhvVDhvVDhfNDhfRDhfRChfRChfVChfVChPNChPRChPRChvRChvVChfNChfNChfRChfRChfRChfVChfNChPRBhPRBhvRBhvRBhfVDhfNDhfRDhfRChfRChfRChfVChfRChfRChPRChfRChfRChfVChfRChfRChfRluzXZAAAAQHRSTlMABAgMEBQYHCAkKCwwNDg8QENHS09TV1tfY2drb3N3e3+Dh4uPk5ebn6Onq6+zt7u/w8fLz9PX29/j5+vv8/f7SQxXpgAAAAlwSFlzAAALEwAACxMBAJqcGAAAHw9JREFUeJztnXlb6joQxlvA3et+3I/ijjt6XFCB8v0/1QVXhCaZZGaSFOb3PPf+dYpp8zZNJvNOkkQQBEEQBEEQBEEQBEEQBEEQBEEQBEEQBEEQBEEQBEEQBEEQBEEQBEEQBEEQBEEQBEEQBEEQBEEQBEEQBEEQBEEQBCEc05dnE6HbIASjdNDudJq7aeh2CGFYb3TeeVwO3RIhAHO3nW8upkO3RvBM5STr9NGulkK3SPBIuvXWGaDxJ3SjBG8s/Bvs/h63s6HbJXhh8jyv+7tkx5XQbRPYSfdaiv7v8rYVunkCMyvP6u7v8W8hdAsFRmau9d3fozYZupUCE+XDtrn/O53mnoQGR5KNF0j393haCd1WgZz5O2j397iaCd1egZSJ08zc6/20D8qh2yyQkW437bq/x8t66GYLRCw+2nd/j7u50C0XCJi6cOv+LtmphAaLTmkftPRT0dyWJWGhWTME/sw8LIa+B8GZ2Rts9/c4nwp9H4ITlSPLpZ+K1r5kixSQzVea7u/xvBr6bgRL/run6/4eNxIaLBITZ7Td3yU7lNBgUUh3HQJ/Zl43Qt+YAGL5iaP7e9z/F/reBCPTl1zd3yUTI1nklKqowJ+Z5o6EBiPmy+zFiRjJoqXf7MWJGMmipHJMFPgz05bQYHTkmL04ESNZZOSbvTgRI1lEKM1enIiRLBbSPZbAn5lXMZLFgMnsxYkYyYIDMXtxIkayoJQPmAN/Zpp/JTQYDLjZixMxkgXCzuzFiRjJAlCxNXtx0j6Q0KBfnMxenIiRzCuuZi9O6mIk8wXC7MWJGMn8UNrXVHkKy5sYyfhZDRj4M/NPjGS8IM1eV5B/hFtdipGMkcohaun3uDgN+WfTa6jEstaeLAmZ2ECZvVp7aQITQFLGCe1ZQoMcIM1eV71EPqAAkmQO9x0QIxk5SLNXY+39V8ACSBJcipkYyWhBmr2yw8/PsoUAsJITIxkhy7jA3913+p6NANDxxjsxkhExiZqSvW3+/JKdAPSVxc1kp2Iko+EQ0Qtn/fFZSwF0LwBFDpSIkYyGsnPix+PvpD1rASTJKs5t9rjk80GNLOtuT781mK7lIICkhAsKdC4kNEiAk+vvaujRuwggSWZxQQExkhEwa/8WNnIKO7kJIEk2cb6zzyiEgMB2Hvi99P+FqwCSCrLokBjJsFjOA+v5D9xZAEmygAsKZEeSLYLDZh74porCIQSQpH9xiShiJEMCnweqU7MwAkiSKVxQoHMvRjIM0Hngg+Yx4wSQJCvIEjRnYiRDAJoHtnZ1sTesAJLSAS4oIEYyBJB54KU+6oIWQHcgqqMU0HkaoxpT6fTS+u5hrf7UeLytHez8WUQWVzLOAxumVBwCASTJBrIYzdV41Jgqr58Pz5rfzlYxUTH9PDAz+7NIBJBUTt16/osxMJJNbd2qfNutqw3nTVLtPBASa6ERQJIsPNh3ez+NkTaSpZuG7L2s7hoaVc8DYQk4VAJI0l2kO2WEjWSrkJDZnZuBQjUPhLqyyATQHeSQNYmzk9EMDS5AJ8lXTtHx/HkguFQPoQDwxYnetkZvSThj8VpkTlGRnHlgU7v0/wWpAJIStkDNqBnJUssoSXvH/m8MzwNtEi5oBdBtDbY68fkohQbL9gW7zuwHwYF5oJ0Lh1oAWLfSh19pRJhx2S+tW78B5f5wvO2Kml4A+FI1o2IkW3KLjzWsl0NrPxdbp1kwCICgTvFIGMm2Xd+DlnVM4Msh/mofTWERAP6QqnbxjWTHiNvftfxbM+9zb6d1NI8ACIrWvBTcSLaLunvbMeCge80/J98VlwAIKhYX2ki2jJsHtSznAaWGq+OGTwD4oECBjWSz2Jp9Dcu1wILr6plRAN1PEzYo0Cxojaky/qDGuqc7ZxVAkqxjz6t+LGJoMMXVbfrgzE9bmQWQVE6w9WsLaCQ7Qt7yBw5RYQe4BZAk/2GDAoUzks0jb/jrvr0ExfkFkKQ72BnRc7GMZFSHNXr5CHgQQJJMoivZ3hTISLaMvdkvMh837UUA3YeCDQoUyEiGTI7r48pDaz0JgOAM69dN81+JgQ3kffbjYQnkSwAEQYHOfRFCgyXKys13/O31J4AkWUcfaFQAIxlgDyBr1C9ql3cQUx3/7NenAAhOs7ZIdguEqVvbV5tfAe6p7VvT86izt9erANDVbTvRG8kMMYBs4FTFGYO9OmPfDfEsAIqjjS5jNpLta5v+b3iTb1E/Z2DfFPctAIpzrWM2kmnXgOd57a5oJ8fsK0H/AkiSZfReWbRGsildqw/yr0lrmmta3FoPIYCktI8+3/Y2TiPZjqbJNdVFqW4MyKnsRkoQAXQnP+gN0+w4xtCgpivv1euXimYewL0hEEgAFEGBCI1kFfWyrq1LdF7U3CVzk4MJICmjgwJwB6QvltRtPdZeqFkNMq95wgmgu2ZGBwViM5Kp9wGa+g/WjPplYN4PCCmAJMEHBZpcTXPir7Kdpk+5evLwh7fJYQWQTKCDAmxNc0GdC2Zyu20rr2TODAssgO5nExkUYGyaPUo5G5fz6gCCInpARXABJCkuKMDZNGuUtUDMmzrKTSRl+ICG8ALotgETFOBtmiXK9fy58VLlCQy3vE2OQQBJ8sc9KMDdNCuUdbKOjJcqK8k88jY5DgEgggLsTbNB2cqq8VLl8QsvvE2ORABJsuA4E/DQNDjKezg0XqpMnG7wNjkWASy5Vh3nb5oFiJmccv44FgIon7j0/TvcTbOCYxXwxNvkKATg/Pp3IhOAchx/M+1bTSjnQMxpgREIoITyUrI2zRZ1WRjTaZmbyiuZc4LCC2ABFwrkbJo1e8pm6jcDtduBl6yJD6EFUDpCbgrzNc0B9Xv8qo8FT+rWQC+cWUGBBfAfOj2QrWkuaPIBqtoLdWmBXWp8g0BQAaRVdE5Ih6lpbkyq29nUZS7MmZ4D3yAQNCGEwkfL0zRXNGcqX6uvKgFqaJwyFU4MJwCK178TmwDUs0Ddvi4oKaJhWki4EUwAs0Q2eoamIZjRNVV1UOoB8FZPOAaBQAJI/6KdAZ+QNw2H1uiVOwZofSG/aTDkB4YRwCw+HfQL6qYh0b/N18MzwRmbR5EdkRuFQgiA7vXvRCcATYZ/j2b1dw9Wji0fxRN1JnwAAUwjTxr9DWnTCDBVxnw9XvraFyitnNlnRVMPAv4FsIM8Xm4AyqZRUDU3+a1eO6wendcdH8TjPGV7fQuA9vXvxCeACrY4rpmsSuiJ8yyAbdrXvxOfALQGYSoe6AYBrwKYsj9EywhR0+hIKcuEqaAbBHwKYBNtBMuBpmmUGI90J+GeqIyoPwFwvP6dGAWQYKtjw2j/JRkEvAngD8fr34lSAJpNYVJIBgFPAphAHiytBv8I6EE7XoG0bU8Xy8GPAP64HaEIAf8I6Cn7+Qh0qaO7xocAKmyvfydOASST/MGAT1pY97gHAayiqwHpQN4/E64+JweQgwC7ACrw3U4nUHfPB2XReAMtVB39LwG0Hm9qB3ubm5vLSyvd/+8f1m6fvlWMEADv69+JVgCDZ7qzco04V2u60/53srOUn7E4tbJb6yXuOAugfMp+865N4yblnPgM0nQfBMqLpt3F8lLVtWQ1xvIFxbFp/KQ+x4DOdYSHrCIcnx+AJlKh71LDhr+ZYKfzxlxNzB70619bg/yr0LepY8HbarDHZVSDANry9bIKC6mGvlEtk94iQj1iGgSQjs8PM1TxBZCUfUWFPziPpIA2+vX/0PIICKB7EzaDwNMpftyMgHns6//5NRsJASTJOjRDpLmXJovomVPwQQBt+fr+lI2IAJJ0BzIZbFbfuw69dnoxVaVlBu34vPqezI6KAJKkUjVJ4GXv+81FL59YLGRA0K9/f0xrdATQZfFA/SVona/2Z/egBwEmHymAWeyy51dUe6QE0GVmL889/nS6NhSMRe+ghBkE0JavgZD2qAmgy+TS5t7xRb3Re1Ct5/rZ35X86A16D7UR4DAVtONzcGd7BAUABzsIMPhIDWBf/+HclrEWQFJRFh0EQu4j1YK2fOUktoy3APCZlD4HAazjs52X2jbuAsDnUhNayLSgX//8DPexFwDBIFD10cp57Ouv8LiIALrLBqSfisA5AEBdIheC0uAiAuiBclT66X+UArJ9pcVNBPCOu6ky2/DWSPWJiQZ00xQRwCebjt/YbY9tdBsD9DZ3EcAXbrPsfa9tVB56pMGwShEB/OCwzjZVqCfGPg/eGKcQAfRhPQhcERYSAgGpeNyPOVIpAvjFrlWs/dH/fqCVJRYSphQB/MZmt605E6CBC/BkEFDVWxHAAPD99mw5SAPVJ6YMAMtXEAEMAR0EmI8cVwLbwYRmLIkAhoHl3N37ngB+UYHkM4LTlUQAeQCybltuE4DyzNLG36Pzeu1wd31p2m0redGoTwvrggggF/MgoDqZQsPM3t1gpKF5u+NQd8DkibbxLYgAFMw/ah+J9Vmj6ozlh33bjIKS1gZj51wSAajQeu/aduUD58/0y/fGsd0HRddrF3a2JRGAGo371moFMAMI4GZnuiPvhlAmNFu7l0UAGpSDwLPF7G3yBBa6aVctXt0JRQKDff0CEYAWhYVsHfwD5Sp8h+l1F76y3M/7AZfiBSIAPbkWsgfw5Rt29UuewabTUs4P5xyXZUYEYCJnEIDaAlPrDI7sL7RZQxFhxypmIgAjQ3X4oEvA8o1t/3epAT8Dg2dmuNYxFAEAGLCQAQeAWbcaHnfAgXyr/6KWQ1zqAxEAhF8+UuAMYNk10/gFFhfqnwUgahmLAGD0DQKwqfaOexGH1hroL3wnCaOqmYsAgHzX438GfaRRhxplIMtp5XOBiStlLgIA82kh24P8W6SR6xU0o3ufnLbB64Z8RABw3n2kGWSONomtPvIA2c5f6BCcaSQCsKE7CFwD/lkJf3D7JaQ5jwSnmokArJi6huy1UpzfUQX8nVWCI81GRwA1AASlngGv3B5B/0MXG2hGRwCQGyE9ol3FLLKK3ydNP4XJRQDkXKH6/Qc/tjMRADVkZ5q2vfhORADU4FcAX5x7aK0IgBrQESxAfJSfEgHQMrhLi8I69dgBEQAt26geH8SD+1AEQAvtGZ537O0VAdCygOrvYfhjASIAUg5Q3T2Mc6IPGBEAKXo/mT2QrSccIgBKZlC9nUObvQiNCIAS51KOSmDZYQhEAJTkHVeDgz0aKAIgZIJmH7CfN+46JCIAQlCZoAr+422yCICSXVRX58N9Tq0IgBBT6RYXuCMBIgBCKHIBB6nyNlkEQAn2VJ88arxNFgFQgj3RPY8b3iaLACjBHDyjAl6Mwg0RAB0lVE8reGVtsgiAkmlUTwd6+CIAOkQAQYHcCPMcANPPKhq8TRYBUGJXEgzGPW+TRQCUmGuM2wOyCSMQARDiUhXMxAlvk0UAlHCEgrkPJhQBEFLF9LQCt/KPcEQAhNC6Qj7g9oaIAAhZRXV1PgRFQLSIAAgp4WqD5fHM22IRAC1UtSF+OGJusQiAlA1UZ+cBOfwThQiAEvK04DfmBosAiKHOCTrjbrAIgBbqvGB2Y5AIgBbiHeGW29GiNogAaPmH6vBBLtjbKwIghqxIXI/MQ6E4EQAxlDuCp/zNFQFQM4/q8l+0XI6Bs0UEQA3dnnDVQ2tFAORMt1G9/sMre3WQHiIAco5Q3f4D5igoOCIAcipvqH7/4om7NMQHIgB6lih2BFrciQBfjYU0xk9TkEBuBC+AFLI0J8gMysDHSCOZ3ATgqS04vAhg+h6Upz942rA9kMPp0lvQ+YLjgg8B7LRgNdzTW2T/g6oC/OlkR/ybBYWBXwDT75u9oPDcBK5q/D1oAtgLOj7JIPAFuwB2PjL+WqDl+SwmPfAFFAL8KEuaVf2sFuKHWQBT30H+XdC//8+9cPwjrJnHn//8wcfBIgWAVwCbP9U/XmHf3UnXw4OuYRHAye+IowwC73AKYOq6/1eAldtKbrsCB8De7A84Psw53tgowSiAjd/Ff2AHyHfZs48ItTeAv1351SaCQ4QLD5sA3g8N/wW4eOOq7VTwFVwZtjpwJfoY8cLDJYA/w6F9+D7dtJVVJIMfbjw1tOc49oMAjwCGX/8eVfgPLMJLyF9ZfMnPc66/87PVESssAljN39lr2+TqrMHqR94vWfzmf7k/0fKzgxwpDAKoKOfxVum66Za5eNCz3WnxqiVmfYwHAXoBrGpiOXZV3Evr57oqoq9nK3bf7x3lT7W2rX5olKAWgPr17/Fim6+VLp/k6+n5wNoAOq1bXFxP2f7ciEAsgKWG/qdcijfNH1zeNX5iA+1G/WLPJfX/WtOuTqdZjO17ckgFUD4x/pZz7ZbJ+ZXN/c3luYrrD2yZmjaegwClAEyvf49XH1n7ecyZo0tNuynlaEAngNKx+Zc6/JX8Va0DnU56yX/qcGyQCWABeu4DJG2LHmC62dvYDQJEAigdgXdwvCVu9mOcAHwzboMAjQDAr38PX6nbfdiknL9wHzkXFxQCSKt2G7jPzjN5R2bsTCc13+0LCYEA5q3Lfd958e99M2l7LNU4DQJoAdi+/u9c+9yDLTvUHznzK9GAQJ6GTgBzbtX+L/0poOx0OHnDZpexyEAehloA6V9XV/epLwWUXN0mJ+MxCEAehVIAs64pvB1vY4Db+//OeAwCkCehEID76/+OFwVMuPd/l3GwkEGeQ74AplHPtssh/92VkcfSjoGFDPIYcgWwgyzy7icRaw1ZdmL0faSQp5AjgGlsed97T1lY+empFjyBU86LCeQZDPcV9vX3mYydk6BuxYhbyCCPYFAAU/rcGjN+7RjoQWCkfaSQBzAggE3kee/+vRjYFqsGgXRu/aBWf2o0Go+3tYOdP4sFzC6G3P+v20K//iHeJ3yjh8esxWp9eBn8drZasFkj5O77BbDO9DJxQzxsLRwrk99bVxtFSimA3PyPAAr8OZ3CFiD6mbiUtg35ZVmd/8gKKiC3/i0A9IQa6uJngWjpUtqFHHd+x35uFRGQO/8UAH5JHTiuhg5e1KeTdBt62v1VMZznkFv5EMAq9M4VxBBUQ4cvqxa5BdlZqBR4GyB30hOA3vIFIPTr/8EMYv/SnnYBfMeQ+5jWOz5BxLK7jtzCtOUs+igi5C6my9jXP6atdUwSgz312D8DkJvYBFi+tMTy+n+Q/qU+qVRHI/JSZB4ewUtEr/8H9nnMCFpxxwT4H4Bzlv1EdUV/6cTa4b2bo9cpldkZWJHUQHDfPCLFvnee6PPV4cbC8Gd0enHr6Pp9Xuq6/eJ1EIh5DGC+dYzJpu9A2ca/+nmtVjvr/ndZf+hfkTjvv6VwNyOaVsTzANYbf0NJH3SiMGID1srQiKMR71qA87aRRltuAdhYmrHUo40H8N0z2mrPLoDuIIA7ocKCM+TDYIPtjvE+ew8CgFQ1IiLWqDDT7VLU3PIhAFhhIwqsyqR6hOduSQpu+RGAt0Eg0o8Ax60SldzzJIAkWcbudIHI4swPYLjTW6J6e94EgN/rBnFF0VRyyG+TzvLlTwAE290QoswSo75JwsLbPgXgZRC4I2orKbS3SOr49CoA94zXrFG/qF3eQRYTMe4JuN20gnuXGs5KPAvAKem1fbX5Fe+Y2r41BRbrdI0lw/6e1Q+D2PLlWwD2g0BW+724nzGcdZRF6Bixu2Md5I5P/wJIJqxOq/o3vMm3qI8tQ0+384jNDevI6B2fAQRgZSE7z0tzr2gNSBGuBMG3q4fD8hVEAHAf6UH+9aluOdEKb40YBHi3engcn2EEAB0EaqrLU90YEF8JUsi9mmByfIYSQDIFsJDdqyVf0cwD4tsQAPaxhuyQKdkhmAAAFrK2bsG7qL7ujaW5GOAdrYDP8hVQAEYf6bH2as1aIroaIhZdnQen4zOkAAyDQFOf6zqjjghFtx9g2eEDPHM6PsMKQGshM33K1fPA6I6kse3yX/BavgILIEnVVnDTqTfbyiujywyz7vQfuB2foQWQKPd3jMv5KWV7FdGDcNj3+xfsjs/gAlDOAsybOkrtKMMHoXDo+XdenI8ABRNcAMo/em68VFlI+5axvU5Y9/wHPs5VilcAR8ZLlTvLj4ztdcK669+583GuVrwCqBovPVNd+sLYXies+/6D13X+pgUXgLKYjPmkgwvVpU+M7XXCofM/uCXN/skjuAAQMzllIDG6pCCHrv+kXWXe2wwuAEQvjv4qoMcz70oguACU4/ibaftrQhkL9nBOjh0O/d7HBZEHJJfgAjhW/lVTCGxTeWV05WKs+/w3zV0+43twAewp/6p+M1C3Hehh8myHdZcP8m8kt4PfUb/Hr/rpz6S6GGV0FdOWDJXPzWSnTEGB4AJYUv/ZqvZCTVpgdPkASbqNPEqh+z7wZDsHF8Ck+s82dW7/OXU6QCvGUjETp+hSObcc1ufgAlBH9Duda/VVJU1FcfMuQhD+wx4C2mkf0AcFwgtAPQvU7euea66Kbg74xQbaHv1sSpKwJrwAZnR/eUtx0YHmmnZURZN/UT5El1GnDgqEF0CiNXrljgFaX0h8m8H9zNzY9HYeLdqgQAQC0L3N3XnA8EzQcCCFatSIhBV01bwHyqBABALQZPj3aA5sh1SODcMoZ+CUgnQPeaZOp0MYFIhAAInpnKTX46WvUa+0cmZaUN/zNpaCSd0UFsQbWVAgBgFUATdcrx1Wj87rgHeHpnoaM4sW52LlUycKCsQggAryqLRfPMYYBRom3UYeD9nJaIICMQgg2UE+i37iswYrqJxgQ4MNiqBAFAJI6cpJR5cMpGEOe8Zm5xI/4Y1CAMk69kl8E8XBiWDWsaHBFrpmTBwCSNBzok8u2VtKS+kAGxp8REo+EgFoNoVtyNiTaMmZtiqZlccZKigQiQC0mztwojMFQljGnqrzhln5xiKAMsVH4LoYS8BB0r/YbJE796BALAJIJvHBgMd4twENTCpNTkCyQ9egQDQCSBaw06G34k0AfljAHrbccAyAxCOAZAP3BLLoUkHt2MIOgVdOQQE+Adg35xB1/9sujYyJCvaAvdaewxyISwDlw8y6VFPqUEn8G5OLoAjMakvgAni0L4/FJIC1RqfzYK3H1HkMyKIzA7mxhj1e7cy2VjqLAD6DGw6D8obbTLDJX0rFE6V95Fz4zTIhikEA3xkvhkJ/uSy4TIWe4jwrzI0ppV0WyJ3VKdr0Alj8sUGd2t36O5P2EaGbwq7/88EaybJDiwdCLYCJ/pBG5lLgumwbFT4qZvxPQ7qDDA024AcnEQtg63eei9sRXks2g8AtTxX1wEycIZeEV9A+IxXA3FA4yzF3cR2aIfIwMrO/QbBGMmhQgFAA5ZxAxqvj5zndgUwGnyM8HoiODWRoEBYUoBPAWm52i3O1lkrVdP+N3fjOhiGlfIj8DtQAQQEqAUwrTgHCpGgsHqi/BA/7I/ntHwBrJGuagwI0Akj3lOGLG9wT2Mv5FGa3O7G7f8jAGsnuTUEBEgEs6nJasHnak0ube8cX9Ua703qunx/93VjyUUE1GkpII1l2pJ+GEQhgQn8k9POIf6nZmUKmy71ogwJ4AWyZghb7tM9jDMEaya41HYgVwLw5k6U1Nh9sNrBGsrY6KIATQPkYslC54HkqY0UFWWPqSRUUQAngD9DYUvBkrTjAGsnO84MCCAFMgxepBXHsxg7SSNbMzc9wFkBqk7kQ3TFexQRrJLvPCZ65CmDJys7StE1UEvKZwRnJsuOhoICbACZsl6bxnedcVJBGspfBQzWdBGBf+Db7z9cDGnmwRrKb373pIID/XEwsBSjdVBgm9aFXE+39/jm5tQAqoKX/MIWo3VQUFnChwae+dbmtAJyXIq9jtYXDDtJIdv5dftNOAJj9afNBkIIFriPxJ83tz++AjQBwpoVslJL3YwBpJLv/mJdbCAC5AGE9+2o8+YMykmXHva8yWADI8qaPsh/AANJI9rIOFgDyzJvvL45AzDTOSHYzAxOA09L/m+xUIsF8LKOMZO0TyL+6RE047yQKyAraSMbLy0ibN+IAbSTjo21jVBWcwX2j+bgpcuGuYoE1knFAf8aZoAZtJKPGqWaVgAB/Ihkl57pzXwUeVukOXkDyz75emUAA1khGxNuWjP6hwBrJCMhOZOs/JIsPYfu/blWlTKAHuXGD4yXao7vHCayRzBmOA+4FF+aQNabcANcmE/hBn0hmzdPIlmwrJmX0iWRWNNEn2AnUII1kVpxJ4C9GVrAnkgG5L9aBnWNEuudhSfhqWaJe8AnSSGYmO5LAX9wgjWQGbsXvET9buBpTGiwK0wsBQRrJVLT3JfBXFNAnkuUgZq9CgTOSDSNmr6JRqhKGBps7EvgrHkgj2Q9i9ioqOCPZF2L2Ki7pLjo0+Cpmr0KDNJJZnUooRAnGSCZmr5HA1UgmZq9RoeJiJGvtSeBvdJi1NpKdS+BvtLAzkonZa/Qo7YONZG9S5WkkmYKFBrNTyfkYVSBGMjF7jTJGI5mYvUYdrZFMzF7jwLzSSHYlgb/xIN9IJmav8SHHSCZmr/Fi5vp3/9fE7DVu9BvJxOw1jnwbycTsNa68HwvxcZSEMJ4s/BOzlyAIgiAIgiAIgiAIgiAIgiAIgiAIgiAIgiAIgiAIgiAIgiAIgiAIgiAIgiAIgiAIgiAIgiAIgiAIgiAIgiAIgiAIAfkf+0I67H/e1tEAAAAASUVORK5CYII=;" parent="1" vertex="1">
          <mxGeometry x="50" y="-145" width="50" height="50" as="geometry" />
        </mxCell>
        <mxCell id="zdHMWXkbkoVecwIOjnTi-95" value="&lt;span style=&quot;font-weight: normal;&quot;&gt;Dataplex/Data Catalog&lt;/span&gt;" style="text;align=center;verticalAlign=middle;resizable=0;points=[];autosize=1;strokeColor=none;fillColor=none;labelBorderColor=none;fontStyle=1;labelBackgroundColor=none;html=1;fontFamily=Verdana;" parent="1" vertex="1">
          <mxGeometry x="90" y="-135" width="160" height="30" as="geometry" />
        </mxCell>
        <mxCell id="zdHMWXkbkoVecwIOjnTi-96" value="&lt;span style=&quot;font-weight: normal;&quot;&gt;IAM&lt;/span&gt;" style="text;align=center;verticalAlign=middle;resizable=0;points=[];autosize=1;strokeColor=none;fillColor=none;labelBorderColor=none;fontStyle=1;labelBackgroundColor=none;html=1;fontFamily=Verdana;" parent="1" vertex="1">
          <mxGeometry x="290" y="-135" width="50" height="30" as="geometry" />
        </mxCell>
        <mxCell id="zdHMWXkbkoVecwIOjnTi-97" value="&lt;div&gt;&lt;b&gt;DW&lt;/b&gt;&lt;/div&gt;" style="text;html=1;align=center;verticalAlign=middle;resizable=0;points=[];autosize=1;strokeColor=none;fillColor=none;" parent="1" vertex="1">
          <mxGeometry x="765" y="290" width="40" height="30" as="geometry" />
        </mxCell>
        <mxCell id="zdHMWXkbkoVecwIOjnTi-98" value="&lt;div&gt;&lt;b&gt;Lakehouse&lt;/b&gt;&lt;/div&gt;" style="text;html=1;align=center;verticalAlign=middle;resizable=0;points=[];autosize=1;strokeColor=none;fillColor=none;" parent="1" vertex="1">
          <mxGeometry x="750" y="590" width="90" height="30" as="geometry" />
        </mxCell>
        <mxCell id="zdHMWXkbkoVecwIOjnTi-105" value="INGEST" style="text;align=center;verticalAlign=middle;resizable=0;points=[];autosize=1;strokeColor=none;fillColor=none;labelBorderColor=none;fontStyle=1;labelBackgroundColor=none;html=1;fontFamily=Verdana;" parent="1" vertex="1">
          <mxGeometry x="15" y="140" width="70" height="30" as="geometry" />
        </mxCell>
        <mxCell id="zdHMWXkbkoVecwIOjnTi-106" value="SOURCES" style="text;align=center;verticalAlign=middle;resizable=0;points=[];autosize=1;strokeColor=none;fillColor=none;labelBorderColor=none;fontStyle=1;labelBackgroundColor=none;html=1;fontFamily=Verdana;" parent="1" vertex="1">
          <mxGeometry x="-195" y="355" width="80" height="30" as="geometry" />
        </mxCell>
        <mxCell id="zdHMWXkbkoVecwIOjnTi-113" value="Data Transfer" style="text;align=center;verticalAlign=middle;resizable=0;points=[];autosize=1;strokeColor=none;fillColor=none;labelBorderColor=none;fontStyle=1;labelBackgroundColor=none;html=1;fontFamily=Verdana;" parent="1" vertex="1">
          <mxGeometry y="200" width="100" height="30" as="geometry" />
        </mxCell>
        <mxCell id="zdHMWXkbkoVecwIOjnTi-120" value="" style="image;html=1;image=img/lib/clip_art/computers/Database_128x128.png" parent="1" vertex="1">
          <mxGeometry x="-176.5" y="100" width="50" height="40" as="geometry" />
        </mxCell>
        <mxCell id="zdHMWXkbkoVecwIOjnTi-123" value="" style="rounded=1;whiteSpace=wrap;html=1;dashed=1;dashPattern=8 8;fillColor=#f5f5f5;strokeColor=#666666;fontColor=#333333;" parent="1" vertex="1">
          <mxGeometry x="325.59000000000003" y="10" width="170" height="130" as="geometry" />
        </mxCell>
        <mxCell id="zdHMWXkbkoVecwIOjnTi-124" value="" style="editableCssRules=.*;html=1;shape=image;verticalLabelPosition=bottom;labelBackgroundColor=#ffffff;verticalAlign=top;aspect=fixed;imageAspect=0;image=data:image/svg+xml,PHN2ZyB4bWxucz0iaHR0cDovL3d3dy53My5vcmcvMjAwMC9zdmciIHhtbG5zOnY9Imh0dHBzOi8vdmVjdGEuaW8vbmFubyIgd2lkdGg9IjE5LjM2MzAxMjMxMzg0Mjc3MyIgaGVpZ2h0PSIxNy45NzU1MjY4MDk2OTIzODMiIHZpZXdCb3g9IjAuMDAwNTYwMDI1NjI2MzI3ODQyNSAwLjYxOTYyOTc0MDcxNTAyNjkgMTkuMzYzMDEyMzEzODQyNzczIDE3Ljk3NTUyNjgwOTY5MjM4MyI+JiN4YTsJPHN0eWxlIHR5cGU9InRleHQvY3NzIj4mI3hhOwkuc3Qwe2ZpbGwtcnVsZTpldmVub2RkO30mI3hhOwkuc3Qxe2ZpbGw6I2FlY2JmYTt9JiN4YTsJLnN0MntmaWxsOiM0Mjg1ZjQ7fSYjeGE7CS5zdDN7ZmlsbDojNjY5ZGY2O30mI3hhOwk8L3N0eWxlPiYjeGE7CTxnIGNsYXNzPSJzdDAgc3QxIj4mI3hhOwkJPHBhdGggZD0iTTQuNjkgMTYuNGwxMC4xOS01Ljg5Ljk3IDEuNjktMTAuMTggNS44OHoiLz4mI3hhOwkJPHBhdGggZD0iTTcuNSA0LjR2MTAuMzVsLTEuODcgMS40MVY0LjR6Ii8+JiN4YTsJCTxwYXRoIGQ9Ik0xNy40OSAxMS4ybC0uOTcgMS42OC04Ljk2LTUuMTktLjI2LTIuMzZ6Ii8+JiN4YTsJPC9nPiYjeGE7CTxwYXRoIGNsYXNzPSJzdDAgc3QyIiBkPSJNMTIuMzkgOC4yNkw3LjMgNS4zM2wuMjYgMi4zNiAxLjUxLjg2YTQgNCAwIDAgMCAzLjMyLS4yOXoiLz4mI3hhOwk8cGF0aCBjbGFzcz0ic3QwIHN0MSIgZD0iTTYuMTMgNi4yOWgwYTMuNzggMy43OCAwIDAgMSA1LjE2NS01LjE2M0EzLjc4IDMuNzggMCAwIDEgOS40IDguMThhMy44IDMuOCAwIDAgMS0zLjI3LTEuODl6TTExIDMuNDlhMS44NCAxLjg0IDAgMCAwLTEuNTktLjkyQTEuODMgMS44MyAwIDAgMCA3LjU3IDQuNGExLjg0IDEuODQgMCAwIDAgMi43OTQgMS43MDZBMS44NCAxLjg0IDAgMCAwIDExLjI0IDQuNGExLjggMS44IDAgMCAwLS4yNC0uOTF6Ii8+JiN4YTsJPHBhdGggY2xhc3M9InN0MCBzdDIiIGQ9Ik01LjYzIDEwLjk0djUuMjJsMS44Ny0xLjQxdi0xLjYzYTMuMjkgMy4yOSAwIDAgMC0xLjg3LTIuMTh6bTUuNyAzLjg3bDQuNTItMi42MS0yLjIxLTEtMS4yNS44YTQuMjMgNC4yMyAwIDAgMC0xLjA2IDIuODZ6Ii8+JiN4YTsJPHBhdGggY2xhc3M9InN0MCBzdDEiIGQ9Ik0uNTEgMTYuN2gwYTMuNzcgMy43NyAwIDAgMSAxLjM4LTUuMTYgMy43MiAzLjcyIDAgMCAxIDIuODYtLjM4QTMuNzggMy43OCAwIDEgMSAuNTEgMTYuN3ptNC44NS0yLjgxQTEuNzkgMS43OSAwIDAgMCA0LjI1IDEzYTEuODMgMS44MyAwIDAgMC0yLjA2IDIuNjloMGMuMzI5LjU2Ni45MzQuOTE0IDEuNTg5LjkxM2ExLjgzIDEuODMgMCAwIDAgMS41ODUtLjkyYy4zMjYtLjU2OC4zMjQtMS4yNjctLjAwNC0xLjgzM3ptNi45NyAyLjQ3aDBhMy43OSAzLjc5IDAgMCAxIDAtMy43NyAzLjc5IDMuNzkgMCAwIDEgNS4xNi0xLjM5IDMuNzggMy43OCAwIDAgMS0xLjg5IDcuMDQ0IDMuNzggMy43OCAwIDAgMS0zLjI3LTEuODg0em00Ljg2LTIuODFhMiAyIDAgMCAwLS42Ny0uNjcgMS44NSAxLjg1IDAgMCAwLTIuNTEuNjggMS44NiAxLjg2IDAgMCAwIDAgMS44MyAxLjgzIDEuODMgMCAwIDAgMi4wNy44NSAxLjgyIDEuODIgMCAwIDAgMS4xMS0uODUgMS44OCAxLjg4IDAgMCAwIDAtMS44NHoiLz4mI3hhOwk8cGF0aCBjbGFzcz0ic3QwIHN0MyIgZD0iTTcuNDkgMTQuMTVsLTIuOCAyLjI1IDIuODYtMS42NWE0LjA3IDQuMDcgMCAwIDAtLjA2LS42ek04LjE1IDhsLS41OS0zLjZ2My4yOWEzLjQ3IDMuNDcgMCAwIDAgLjU5LjI3em01LjE1IDMuNDdsMy4yMiAxLjQxLTIuODYtMS42NGExLjY5IDEuNjkgMCAwIDAtLjM2LjIzeiIvPiYjeGE7PC9zdmc+;" parent="1" vertex="1">
          <mxGeometry x="373.41" y="30" width="73.68" height="70" as="geometry" />
        </mxCell>
        <mxCell id="zdHMWXkbkoVecwIOjnTi-125" value="Dataproc&lt;div&gt;&lt;br&gt;&lt;/div&gt;" style="text;html=1;align=center;verticalAlign=middle;resizable=0;points=[];autosize=1;strokeColor=none;fillColor=none;" parent="1" vertex="1">
          <mxGeometry x="375.59000000000003" y="100" width="70" height="40" as="geometry" />
        </mxCell>
        <mxCell id="Lg3gl4oM5DAoJkV3vUxF-4" value="INGEST /" style="text;align=center;verticalAlign=middle;resizable=0;points=[];autosize=1;strokeColor=none;fillColor=none;labelBorderColor=none;fontStyle=1;labelBackgroundColor=none;html=1;fontFamily=Verdana;" parent="1" vertex="1">
          <mxGeometry x="327.11999999999995" y="-20" width="80" height="30" as="geometry" />
        </mxCell>
        <mxCell id="Lg3gl4oM5DAoJkV3vUxF-5" value="" style="rounded=1;whiteSpace=wrap;html=1;dashed=1;dashPattern=8 8;fillColor=#f5f5f5;strokeColor=#666666;fontColor=#333333;" parent="1" vertex="1">
          <mxGeometry x="665" y="10" width="180" height="280" as="geometry" />
        </mxCell>
        <mxCell id="Lg3gl4oM5DAoJkV3vUxF-6" value="" style="editableCssRules=.*;html=1;shape=image;verticalLabelPosition=bottom;labelBackgroundColor=#ffffff;verticalAlign=top;aspect=fixed;imageAspect=0;image=data:image/svg+xml,PHN2ZyB4bWxucz0iaHR0cDovL3d3dy53My5vcmcvMjAwMC9zdmciIHhtbG5zOnY9Imh0dHBzOi8vdmVjdGEuaW8vbmFubyIgd2lkdGg9IjIwLjAwMTA0NTIyNzA1MDc4IiBoZWlnaHQ9IjIwLjAwMTA0NTIyNzA1MDc4IiBmaWxsLXJ1bGU9ImV2ZW5vZGQiIHZpZXdCb3g9IjAgMCAyMC4wMDEwNDUyMjcwNTA3OCAyMC4wMDEwNDUyMjcwNTA3OCI+JiN4YTsJPHN0eWxlIHR5cGU9InRleHQvY3NzIj4mI3hhOwkuc3Qwe2ZpbGw6I2FlY2JmYTt9JiN4YTsJLnN0MXtmaWxsOiM2NjlkZjY7fSYjeGE7CS5zdDJ7ZmlsbDojNDI4NWY0O30mI3hhOwk8L3N0eWxlPiYjeGE7CTxwYXRoIGNsYXNzPSJzdDAiIGQ9Ik00LjczIDguODN2Mi42M2E0LjkxIDQuOTEgMCAwIDAgMS43MSAxLjc0VjguODN6Ii8+JiN4YTsJPHBhdGggY2xhc3M9InN0MSIgZD0iTTcuODkgNi40MXY3LjUzQTcuNjIgNy42MiAwIDAgMCA5IDE0YTggOCAwIDAgMCAxIDBWNi40MXoiLz4mI3hhOwk8cGF0aCBjbGFzcz0ic3QwIiBkPSJNMTEuNjQgOS44NnYzLjI5YTUgNSAwIDAgMCAxLjctMS44MlY5Ljg2eiIvPiYjeGE7CTxwYXRoIGNsYXNzPSJzdDIiIGQ9Ik0xNS43NCAxNC4zMmwtMS40MiAxLjQyYS40Mi40MiAwIDAgMCAwIC42bDMuNTQgMy41NGEuNDIuNDIgMCAwIDAgLjU5IDBsMS40My0xLjQzYS40Mi40MiAwIDAgMCAwLS41OWwtMy41NC0zLjU0YS40Mi40MiAwIDAgMC0uNiAwIi8+JiN4YTsJPHBhdGggY2xhc3M9InN0MSIgZD0iTTkgMGE5IDkgMCAxIDAgMCAxOEE5IDkgMCAxIDAgOSAwbTAgMTUuNjlhNi42OCA2LjY4IDAgMCAxIC4wMDctMTMuMzYgNi42OCA2LjY4IDAgMCAxIDQuNzI3IDExLjQwM0E2LjY4IDYuNjggMCAwIDEgOSAxNS42OSIvPiYjeGE7PC9zdmc+;" parent="1" vertex="1">
          <mxGeometry x="715" y="80" width="80" height="80" as="geometry" />
        </mxCell>
        <mxCell id="Lg3gl4oM5DAoJkV3vUxF-7" value="&lt;div&gt;Big Query&lt;/div&gt;" style="text;html=1;align=center;verticalAlign=middle;resizable=0;points=[];autosize=1;strokeColor=none;fillColor=none;" parent="1" vertex="1">
          <mxGeometry x="720" y="180" width="80" height="30" as="geometry" />
        </mxCell>
        <mxCell id="Lg3gl4oM5DAoJkV3vUxF-10" value="TRANSFORM" style="text;align=center;verticalAlign=middle;resizable=0;points=[];autosize=1;strokeColor=none;fillColor=none;labelBorderColor=none;fontStyle=1;labelBackgroundColor=none;html=1;fontFamily=Verdana;" parent="1" vertex="1">
          <mxGeometry x="393.36999999999995" y="-20" width="100" height="30" as="geometry" />
        </mxCell>
        <mxCell id="Lg3gl4oM5DAoJkV3vUxF-14" value="" style="endArrow=oval;html=1;rounded=0;startArrow=oval;startFill=1;endFill=1;exitX=1;exitY=0.5;exitDx=0;exitDy=0;" parent="1" edge="1">
          <mxGeometry width="50" height="50" relative="1" as="geometry">
            <mxPoint x="600" y="230" as="sourcePoint" />
            <mxPoint x="660" y="230" as="targetPoint" />
          </mxGeometry>
        </mxCell>
        <mxCell id="Lg3gl4oM5DAoJkV3vUxF-15" value="" style="endArrow=oval;html=1;rounded=0;startArrow=oval;startFill=1;endFill=1;exitX=1;exitY=0.5;exitDx=0;exitDy=0;entryX=0;entryY=0.229;entryDx=0;entryDy=0;entryPerimeter=0;" parent="1" source="zdHMWXkbkoVecwIOjnTi-123" target="Lg3gl4oM5DAoJkV3vUxF-5" edge="1">
          <mxGeometry width="50" height="50" relative="1" as="geometry">
            <mxPoint x="292.5" y="100" as="sourcePoint" />
            <mxPoint x="720" y="100.5" as="targetPoint" />
          </mxGeometry>
        </mxCell>
        <mxCell id="Lg3gl4oM5DAoJkV3vUxF-16" value="" style="shape=image;verticalLabelPosition=bottom;labelBackgroundColor=default;verticalAlign=top;aspect=fixed;imageAspect=0;image=data:image/png,iVBORw0KGgoAAAANSUhEUgAAAfUAAAIJCAMAAACLLlTcAAAAJ1BMVEXxcCTsVi5Fhus1qFPpRzf7ugfcthJDh/PqQzVChfQ0qFOoXYH7vAUu4+92AAAACHRSTlMA672sPCrwTq8823UAAAyFSURBVHja7d3bevI2EIXhYLAFKvd/vU0C/CEJBG80o9l8qyd92hOevKyRbMB6eyOEEEIIIYQQQgghhBBCCCGEEEIIIYQQQgghhBBCCCGEEEIIIYQQQgghhBBCCCGEEEIIIYQQQgghhBBCCCGEEEIIIYQQEjuHl+FvFFB7d83xe3bH2/+APw73I+nnuePnL+gRfJH2A33s/YEfW+RKz1/VgfixaXbQ2ybftRb/UXr+yOZKLiaOvNmSH3UCfDryu8rzh89EDnxScuB7mnck/1rjgdCt+dFCgM9U8++THpI0Ncc9sTmDPtVop/DZzXHPaY67jPnRQ3DPZ07fU8123HObX91xyzLcWd5Tm+Oe0xz39eg7z+iw5ys67lnNL+5YpkOn7hnNqXtSdOqe0Zy6J0Wn7i+v0Y8xQ92TFZ26p0WHPdt0Z8onLTrsadGZ8tmm+y2wJ0RnyqdEhz3Vks7inhod9k/0Y75kZ09X9Ev+KwX0dOinYSigZ0M/JWZPjP7hXkBPh56UPTt6SnbQE7KDnpAd9ITsoCdkBz0hO+gJ2UFPyA76T/UE7KAnZAf94YwvoGdDj760p/zmzGv09xTQ86FHbnvO+T4HPXDbQU/YdtATsoOeUB30hEt7zu37MvR4bU9Z9YXo4dhBn6c+gJ4OPVbZUy7qa9BD7ehAT9j2jPN9Lfo7O+j50IOUPeOivgE9yNKesOrb0CO0HfSE6gnn+1b0ADPeVtV3Hzn8zOd/tYTuve1m0O+0f4+jL30b6M7VTcz3m/eMV7udvgm68xnfvepX8UVv1C3yrdA9t70z+oV83Yxad0psM3TH6l3n+yf5phe/HL4duuMZ36/qW8nXwTdF93o/vht6E/Iv+D7oXmf8oVvN2y5TMwvfGN0pe5eq7yQewz3LvTm6U3XXo32pe3t0l+z6VRczn+Euge5wG6+OvpM+YuEvdxl0f2VXVt9pHKvxdD8vhO7u6k0bXelMjcfuYujeyn6IaP7EXQ7dGbtq1XXPTPrFLonuTD2q+W93UXRX7IpV73E42j27MLor9cjm39yl0R2xq1W93ymIV3Z5dEfqauid39oK6G7Ylare+7jTw0EF3Y16CvQP9mGAXbXqNg42LqhrVt3K2fU67FTdFLoOu4Oya6hbOr+8DJQ9HboKu/myK6jbQldhN6+eDl2D3XjZN1V99ysu0BXYrauvtj4/zC9+i+ga7HGq/of2M36b6PIXcKbLPlt9gfd9pmkcx5TshtXn/Yh1HfgXvE35krbsr6u+Tdx050tadRXym7wx+CK7pRtcVr2p+F3lLW3kh4xlf64uQW6v8bJlL84GvJz5DT7D0m607I+rLkxuC76grmZux110aR+cDHgt8tvWLvbSbrLsP6u+UzW/Fj7yjLep3tvchrvgjDc44r/dje1kbsFdcMYbLPv9gO9nbsC9pFI3Yt7fPdOIP/Qf7l/q557XcXIz3lzZrwPegnn3updk6lbM+7rLlb0YHPA7S+jv6TbmxdiNlf2w21kz71n3LOqH3XQ2mE51lyq7sfPZx/FsM53qLlZ2S20fp7PZdKl7ScA+TobV+9Rd8r5sYbobZZe8HW+h7pane8cpH/ubkx7Qe9S9RGYfzy7S4Ys2sj947Lm4j07QP6d8pLL3XNx9TPdOi7vwr5u7sdu+YOu+uMf8dbOvpusv7iGfYOEOXb3tAZ9S5BFdmT3eU4rGs89osms8gLCAbo1d47GTBXRj7Bpl12u7Z3TN+zUq6lptd46u2HaVUwN02u4dXZG9hDkswj+6HruOukLbfV6n92JXUpduewx0NfZyisAeBV2LXUtdlD0OutJHMVoLuyR7IHSty3ZF9SKFHkpdhV1txIuVfTwHyxhJXej6LRy6xo5Ob2GXaXs8dA12TXUB9lg7Ob2yu1aPtpNTW9k1F/bmS3vE+R5uO9e67aC7WNjbso+M94zqoDtRb7i0g+5kE9+y7SHne7BvUbVXj3jRpvhF2dPJ44wfabov9RZtH2l6RnXQfW3iW7CD7q7rDR4kP4Huruubyz6C7lB9I3u8rVysR5AJqYPuUn0TO+gZ1aPdlQv1+Ggp9pGmu1Vff1+W7787Vl9b9pGmO1ZfW3aa7lp9XdlH0F2rrys7P2V0rr6m7CPoqIPuTn0Fe6Q78F0P5valDrp79cWfs/es+nSe4qC/s5fhEvtlH7tgT9N4y/u/t9Hvjf7Pvnzym754U6761fv7G++Cv5HeCPqX/WD3t82jLvn4/CSei3wQdHV4s+rTy7OXNsDbQ7+t9AbZ1fZy08zjtla620S/7OwHe+q2zK/vxCkOup77AvXJnPkad9PoWu7zy64y4Nc8CWiRu3X0z/XdkrpN87dFB8PaR9epe7Ez4NefmTq37i7QNeo+t+ziA37TY97msTtBV7hPP1vdMvq81+cHXX7KFxMDfvsDHV/W3RO6OPu8sgsP+BbHoL9g94UuzT5T3cGH3X+ye0MX3tMZUG8l8ge7P/QP9s7frRAd8O1EnrJ7RJcd8nPKPrpAf8ruE12UvbN628exPxxKXtFFr9tnqE9O0B++P/2iS7IP6xpkEv0Bu2d0wadVvR7xo4tF/TaXpkDockt7R3UJku+DyTm64Izvpi5zsM4YCV1uxr9c2CdHVb9nnwKgi5X91YiX2sxNQn+nf683AroY+0t1T/P96wVPMdClZnwndTmUS9mjoEuVvYu6ZBXHQE0XK3vpsZkTVZkioQuVfeiwmZNlGSOhC5X974V99Ff1aEE9ZYYY6hOS3cuur07V++/nivYWfkLdwIhXV8exf9nV1am6cfUR9ajqRVedZd3Cwv6nOlUPWnbUM16xo55yYddVZ1nPOOFRt7GdU1bH0MLCrtx1qm5jO4c66qijjnrUTTzqdP1bJtTpOuqs66jTddTpOuqoo579jiz34VeET1/YzPFJK+p8qwJ1vkHFZg511Lt+Hx5FA8s6v4JAHfUUA55fN2a8R8MvmTMOeJ5VwbKOeo4B36Hr7Oe6D/gB9Xw7+FfqMs+WxLJv1V89NNrhc2Sp+ubDIGTUKXvfqp+iPR8e9YxnQYBut+uod7xW73jaD+wdq97rZC/UO6KfYp3diHqTAS+oTtv7XKrPU59gDzbfZ6i/oR4N/fWyLnkUN0v7X+hdqy6pTts7LOozuz7BHgt9mPMCBNVh74A+p+qiIx72DuhDf3XYH23kTgbUJ9gDoc9b1qXLDvvP6/TBQNXF1XFXujmzUH2SVoddabrPH/AKZT+fR9wVpvuCqquoM+VVzBepT2fcHd94XzXgdcqe272oFH1J1fXUz/v9np5bUX+blNhrzeeuVfP59+B1y/6OXj/d9yWN+Du5nvmyquvs5y7oN/jo9KVoky/byymV/Qv9Tl4zRTODNvjyqmuo/0DXx6/DSeufXlmqLr6fe4KumVP0LEYX/+Ctom5QXbbsFtDjq6/YHo/R0StVV714s4EeX33NBeYYHL1SdcWyW0GvVF2v7GbQK1VXK7sd9ErVtcpuCL1SdaWyW0KPrb7ho6wxMnql6io36GyhV9A1ym4MHfXnZZ/ColfQ5ctuDh11eXZ76BV06as3g+gVdOGyW0RHXZjdJHoFXXTG20QPq97mm9xjTPRK1QUv2q2iV9DlZrxZ9JDqw/DWLGNE9ErVpdgNo1fQhWa8ZfQKugy7aXTUZWa8bfQKugS7cfQK+pwZP8VCr6C3X9rNowdTb3mlvnrG20evVL01uwP0Cnpjdg/oFfS27C7QK+hNN/I+0CvoLdmdoFfQG16/eUGvoLdjd4NeQW/G7gc9iPqgo/4nuyP0Cnojdk/oFfQ27K7Qa4g1XfNB24/ZfaFX0FtctztDrwHQtR9y/5vdG3oFfTu7O/QK+hr20Td6BX3rJ3AO0SvoG7fyHtE9qw9Dz6ORrou7S/QK+iZ2n+iV6b5lcXeKXkHfwr7fo55nuv+LU3ZuwmZkp+gZ3UHPyM42LqM7Rc/IjnlGd7buzdj3qKcqujt3R+bG0T2NeYZ7yxQn7phnHPOYZ3RnE5dxztPzjO7s28Xc96jnMre+wGOesfCQixd+j/oc8jjmt8LvUc9EbhQecsVRv0f9h/jHpXlY8jv4Pep3HY9Ofj/su9P3r3ge8R+l72jfkzsj+K/Wd3kHaEt/Yl+484L/pa+S0iNQE0IIIYQQQgghhBBCCCGEEEIIIYQQQgghhBBCCCGEEEIIIYQQQgghhBBCCCGEEEIIIYQQQgghhBBCCCGEEEIIIYQQQgghhBBCCCGEEEIIIYQQQgghhBBCCCGEEEIIIYQQQggh5Ff+BzzHwQ0tmPpLAAAAAElFTkSuQmCC;" parent="1" vertex="1">
          <mxGeometry x="19.37" y="-203.7" width="61.26" height="63.7" as="geometry" />
        </mxCell>
        <mxCell id="py6beyFThmu8FiiKGyt1-1" value="&lt;b&gt;&lt;font face=&quot;Tahoma&quot;&gt;GCP&lt;/font&gt;&lt;/b&gt;" style="text;html=1;align=center;verticalAlign=middle;whiteSpace=wrap;rounded=0;" parent="1" vertex="1">
          <mxGeometry x="70" y="-191.85" width="60" height="30" as="geometry" />
        </mxCell>
        <mxCell id="py6beyFThmu8FiiKGyt1-2" value="" style="rounded=1;whiteSpace=wrap;html=1;dashed=1;dashPattern=8 8;fillColor=#f8cecc;strokeColor=#b85450;" parent="1" vertex="1">
          <mxGeometry x="-10" y="400" width="120" height="170" as="geometry" />
        </mxCell>
        <mxCell id="zdHMWXkbkoVecwIOjnTi-25" value="" style="endArrow=oval;html=1;rounded=0;startArrow=oval;startFill=1;endFill=1;exitX=1.031;exitY=0.167;exitDx=0;exitDy=0;exitPerimeter=0;entryX=0;entryY=0.325;entryDx=0;entryDy=0;entryPerimeter=0;" parent="1" source="zdHMWXkbkoVecwIOjnTi-12" target="zdHMWXkbkoVecwIOjnTi-28" edge="1">
          <mxGeometry width="50" height="50" relative="1" as="geometry">
            <mxPoint x="102.5" y="387.25" as="sourcePoint" />
            <mxPoint x="180" y="430" as="targetPoint" />
          </mxGeometry>
        </mxCell>
        <mxCell id="zdHMWXkbkoVecwIOjnTi-26" value="" style="endArrow=oval;html=1;rounded=0;startArrow=oval;startFill=1;endFill=1;exitX=0.956;exitY=-0.033;exitDx=0;exitDy=0;exitPerimeter=0;entryX=0;entryY=0.75;entryDx=0;entryDy=0;" parent="1" source="zdHMWXkbkoVecwIOjnTi-14" target="zdHMWXkbkoVecwIOjnTi-28" edge="1">
          <mxGeometry width="50" height="50" relative="1" as="geometry">
            <mxPoint x="112.5" y="397.25" as="sourcePoint" />
            <mxPoint x="230" y="420" as="targetPoint" />
          </mxGeometry>
        </mxCell>
        <mxCell id="py6beyFThmu8FiiKGyt1-6" value="Cloud functions" style="text;align=center;verticalAlign=middle;resizable=0;points=[];autosize=1;strokeColor=none;fillColor=none;labelBorderColor=none;fontStyle=1;labelBackgroundColor=none;html=1;fontFamily=Verdana;" parent="1" vertex="1">
          <mxGeometry x="-10" y="477.5" width="120" height="30" as="geometry" />
        </mxCell>
        <mxCell id="py6beyFThmu8FiiKGyt1-7" value="&lt;span style=&quot;font-weight: 400;&quot;&gt;(Governance/ Lineage)&lt;/span&gt;" style="text;align=center;verticalAlign=middle;resizable=0;points=[];autosize=1;strokeColor=none;fillColor=none;labelBorderColor=none;fontStyle=1;labelBackgroundColor=none;html=1;fontFamily=Verdana;" parent="1" vertex="1">
          <mxGeometry x="130" y="-105" width="160" height="30" as="geometry" />
        </mxCell>
        <mxCell id="6_0tUARy9YuwA3Fw7Pum-3" value="" style="endArrow=oval;html=1;rounded=0;startArrow=oval;startFill=1;endFill=1;entryX=0;entryY=0.75;entryDx=0;entryDy=0;exitX=1;exitY=0.25;exitDx=0;exitDy=0;" edge="1" parent="1" source="zdHMWXkbkoVecwIOjnTi-120" target="zdHMWXkbkoVecwIOjnTi-123">
          <mxGeometry width="50" height="50" relative="1" as="geometry">
            <mxPoint x="-90" y="197" as="sourcePoint" />
            <mxPoint x="197" y="197" as="targetPoint" />
          </mxGeometry>
        </mxCell>
        <mxCell id="6_0tUARy9YuwA3Fw7Pum-5" value="" style="endArrow=oval;html=1;rounded=0;startArrow=oval;startFill=1;endFill=1;entryX=0;entryY=0.5;entryDx=0;entryDy=0;exitX=0.708;exitY=0.672;exitDx=0;exitDy=0;exitPerimeter=0;" edge="1" parent="1" source="zdHMWXkbkoVecwIOjnTi-1" target="zdHMWXkbkoVecwIOjnTi-18">
          <mxGeometry width="50" height="50" relative="1" as="geometry">
            <mxPoint x="-100" y="225" as="sourcePoint" />
            <mxPoint x="200" y="225" as="targetPoint" />
          </mxGeometry>
        </mxCell>
        <mxCell id="6_0tUARy9YuwA3Fw7Pum-7" value="" style="endArrow=oval;html=1;rounded=0;startArrow=oval;startFill=1;endFill=1;exitX=1.008;exitY=0.167;exitDx=0;exitDy=0;exitPerimeter=0;" edge="1" parent="1" source="zdHMWXkbkoVecwIOjnTi-5" target="zdHMWXkbkoVecwIOjnTi-123">
          <mxGeometry width="50" height="50" relative="1" as="geometry">
            <mxPoint x="-101.5" y="74.5" as="sourcePoint" />
            <mxPoint x="170.5" y="74.5" as="targetPoint" />
          </mxGeometry>
        </mxCell>
      </root>
    </mxGraphModel>
  </diagram>
</mxfile>
